<mxfile host="app.diagrams.net" modified="2023-12-29T14:50:46.606Z" agent="Mozilla/5.0 (Windows NT 10.0; Win64; x64) AppleWebKit/537.36 (KHTML, like Gecko) Chrome/120.0.0.0 Safari/537.36" etag="F5HDV6o43Khn4EjO7Ifi" version="22.1.15" type="device">
  <diagram name="Page-1" id="HLLdvzlLg_fowvnv7G-s">
    <mxGraphModel dx="989" dy="514" grid="1" gridSize="10" guides="1" tooltips="1" connect="1" arrows="1" fold="1" page="1" pageScale="1" pageWidth="850" pageHeight="1100" math="0" shadow="0">
      <root>
        <mxCell id="0" />
        <mxCell id="1" parent="0" />
        <mxCell id="q4SNdj-srVkhhxJCpdBC-8" style="edgeStyle=orthogonalEdgeStyle;rounded=0;orthogonalLoop=1;jettySize=auto;html=1;exitX=1;exitY=0.5;exitDx=0;exitDy=0;entryX=1;entryY=0.5;entryDx=0;entryDy=0;endArrow=none;endFill=0;" edge="1" parent="1" source="q4SNdj-srVkhhxJCpdBC-3" target="q4SNdj-srVkhhxJCpdBC-5">
          <mxGeometry relative="1" as="geometry" />
        </mxCell>
        <mxCell id="q4SNdj-srVkhhxJCpdBC-12" style="edgeStyle=orthogonalEdgeStyle;rounded=0;orthogonalLoop=1;jettySize=auto;html=1;exitX=0;exitY=0.5;exitDx=0;exitDy=0;endArrow=none;endFill=0;" edge="1" parent="1" source="q4SNdj-srVkhhxJCpdBC-3">
          <mxGeometry relative="1" as="geometry">
            <mxPoint x="280" y="360" as="targetPoint" />
          </mxGeometry>
        </mxCell>
        <mxCell id="q4SNdj-srVkhhxJCpdBC-3" value="PA" style="triangle;whiteSpace=wrap;html=1;" vertex="1" parent="1">
          <mxGeometry x="340" y="320" width="60" height="80" as="geometry" />
        </mxCell>
        <mxCell id="q4SNdj-srVkhhxJCpdBC-5" value="" style="triangle;whiteSpace=wrap;html=1;rotation=90;" vertex="1" parent="1">
          <mxGeometry x="480" y="280" width="40" height="40" as="geometry" />
        </mxCell>
        <mxCell id="q4SNdj-srVkhhxJCpdBC-6" value="" style="pointerEvents=1;verticalLabelPosition=bottom;shadow=0;dashed=0;align=center;html=1;verticalAlign=top;shape=mxgraph.electrical.miscellaneous.small_d_connector" vertex="1" parent="1">
          <mxGeometry x="40" y="400" width="80" height="40" as="geometry" />
        </mxCell>
        <mxCell id="q4SNdj-srVkhhxJCpdBC-7" value="" style="html=1;verticalLabelPosition=bottom;align=center;labelBackgroundColor=#ffffff;verticalAlign=top;strokeWidth=2;strokeColor=#000000;shadow=0;dashed=0;shape=mxgraph.ios7.icons.microphone;" vertex="1" parent="1">
          <mxGeometry x="100" y="280" width="20" height="40" as="geometry" />
        </mxCell>
        <mxCell id="q4SNdj-srVkhhxJCpdBC-13" style="edgeStyle=orthogonalEdgeStyle;rounded=0;orthogonalLoop=1;jettySize=auto;html=1;exitX=1;exitY=0.5;exitDx=0;exitDy=0;" edge="1" parent="1" source="q4SNdj-srVkhhxJCpdBC-9">
          <mxGeometry relative="1" as="geometry">
            <mxPoint x="270" y="340" as="targetPoint" />
          </mxGeometry>
        </mxCell>
        <mxCell id="q4SNdj-srVkhhxJCpdBC-9" value="" style="shape=image;verticalLabelPosition=bottom;labelBackgroundColor=default;verticalAlign=top;aspect=fixed;imageAspect=0;image=data:image/png,iVBORw0KGgoAAAANSUhEUgAAAdYAAACmCAYAAABnT64vAAAgAElEQVR4Ae29ib82W1Xf6X/UA0m6bdOhu5O0bbST7iRNYjTpJJ10Op1ONJ0YI4gTgQgoQRFxwjiAcQIVmS7IPM8yXlAmUcDLoFwGQQFP9/ec9/uc9a67dtWueqrO89S5tT6fc6qeql17qtp7rb3Wb639FRc77T2w98DeA3sP7D2w98BiPfAVi+W0Z7T3wN4Dew/sPbD3wN4DFztj3T+CvQf2Hth7YO+BvQcW7IGdsS7YmXtWew/sPbD3wN4Dew/sjHX/BvYeOKIHPvVHf3Lxknt//+JPvvTlI3LZH917YJkeePl7Pnbxf/3H11189FN/tEyGey6zemBnrLO6bfsPfeDjn714/HPfdfG6933i4k//9E+336ATteDf/drbL/6zb/31i19784dOVIO92L0Hrnvgn/zkay+/x5991fuvL+5nN94DO2O98S4/fYFf/vKfXvz1J77scgDCFP7aE1568fTXfODis1/44ukrt7Ea/D8/8/rLfnzyb7xnYzXfq3sbe+Bv/MDVuP6hF+7f4ynf785YT9n7Jyr719/yu5fM4M9++3Mu/ty3P/fAYP/r73jexY+8+LdOVKttFvuPnnq1QvjeZ79jmw3Ya32reuC/+3cvuBzPj37W229Vu7bWmJ2xbu2NHVnfP/7ily+++rEvuhx8P/wb77nARvhTr3jfxdc+/sWX1/7zf/vrF1/c7YXdvfx3n/Kqy357xC/9Zvcze8K9B9bogS99+U8vGL9oof7Nz795jSL2PDt7YGesnR1lsi988UsX7/vYZ/y5uSO2FwbeQx/1govP/fG16veP/vhLl9e595ldJdz9Xv/mD778st++6Wlv6H5mT7j3wBo98PFPf+EwhgEw7XS6HtgZ68S+f/gvveXy433jBz458cnTJ8eG+tBH3XNZ/6e/+m5wAwAmmCp/DNCd+nrg677/JZd99n/8xGuaD7z3vs9cfMt/etPFe+/7dDPNg/3Gy95938U/+PFXX/zuJz9367ri517zgYufeNlvr96ud334/sMY/js//MrVy9sLaPfAzljbfVPeedgPveLy4/3l1/9Oef8UF9/xe5+6uP/zfzJaNIAGGOf/9LgXle4h2Fy5fxsnt9HOmZngL//737jss4c96eXNHB77nHdepuG4U90D//dPX4HAfvqV76sTbPQqblj/xbc9+/L9f+pz42P0mGbiaqNw/LXf9+JjstqfPbIHdsY6sQO1Rf7MmUwAMFUGExPTEH3yM1+4+K8eeQVUevZv/l6Z9Ku++/mXef327+8rq7KDiot/4XuuNAB8Fy36t794peV45DPe2kryoL/+DT/8ystv77aB5/7gs398YHYf/sN1fUuf+cYPHcpCM7XT6XpgZ6wT+96J9FwmAJgkjPWvPuElgy0BJUi6v/GDL7vA3aaiv/iYF16mefvvfqq6vV8reuDP3RFWsFm36J/dWY2hDt6p7gFWWHyfT3j+u+oEG72K9od28be2KeDHXvLbh7L+y2979u6ffsJvZmesEzofO+RDHn6l1vkPz793wpPrJf2F133wcjChkmwRq9WHPPxKzfvK3/pYK9nFX7mDDH7D+7dnP242asUbfA+iMB/yiOc0S/q7P3KFHIbB7lT3gALrbXMTufcj13bPtQXWxzzrHQfGCiPfQYj1t3YTV3fGOqGXQdEqffIRnwM99WXvvazTV33X85vVecvv/MFlmr/0mBc203Djf70TNOIV72kz38EMHmQ3P/8n10hqvgsQ4xX9L//hpZf9PwRwqp57sFxDQNEO+e2/fLvclt70gU8e5oy1Bdb/9+fedCiL73Ft1fOD5fuc086dsU7otd//1OcPH+4jn3EeE8APvuDdl3ViJd0iVqkMNCb4IfrbT74CZr3gHR8dSrbfu9MDf/i5a/sZ/fuJz9RoagFOO1Kz/nTwpab/+IM53CZ66bvvO7QNcNGa9Pd+9EozYl++88O7SWfN/h7Ke2esQ72T7r3no58+DJJ/fSb2sn//69fqn9aK6Z63f+Sy3mMT+9//sVdfpiMy007jPUCgcycxju9v+DcT0Yr7aAR2emAP/M4nPnvox3/6U7fL//I5b/3woW33vH1dgVU7td/ka3774w/s7P3KjfTAzlgndDO+q360YyjcCdkelZSIP9YJBGJFogUJvzdEOJWT1y+9/oNDyfZ7d3oARmrfc3zrh/7wAX1DFCvTfM3jXvSA++d+ATUtNvo3f/CTF3xH+GOiuVmSfvNDf3joI4S720SMJd//s968rsD633znlQD35++g+5/3to/cpq7cVFt2xjrhdb3onb9/GCT/8MfbAQEmZHl00m9++hsPdWr5nxptaSw60Dc/7SqvfWeMvteCqs1Jk+OrfuuBK4TobkEc1y0RQCIn69jO73jmsm5DUV36t37oFVvqotG6/uTLrzAQ9B9Aw7Uo2vsNs7lmeWu147bkuzPWCW/yV9907Sf29U8+jwngH98JAs/AffdH7y9bg2sQ97/tF99S3vfit/7Cmy/T/fhL148SY5lbPrKKiwynWiFENedXfsfzNtNcXLJi2wC+EViEa0ujm9lyz7LYaek2kUFZaB8xudci3XpApzuOcb+5zURsZPAjLRPYKdu+M9YJvU9UGCeAMSDQhGyPSord1Dox0Vf0/c9712Ua9g4dou985lsv0wGI2mm8B1ih2vccKxX62373Ws0J8hXV6hYoIuBRBUMKlkujm+O4+h8f23Yb20K/5Tqy65HfyJq+7yL/AcrpdvO4597uSF+EiqRvxxYM+Z3cxO+dsU7o5Se98AqBy8tEej8HQsJ34LbcZB71q2+7TDPmeysQ6rYPyKXe228E0wDvALVfJhHZvqNzlK5znfkdVdjudiQIjihJS9IP3EG200f4s94mItqW7/6J96zn+w6Sn3JQpbM3MOe3zXUpfxfuhYzA+nt/cF4xpnfGmt/WwG8lQT7ac7GX6cpBnZ7fACt86y9chdT70ZcM77UK4yUfGPFO4z1g1Cv6jL8fKCbO5wZUKGlw0dkCiXgmgo9EoHzawGbaS9L33BH8yJv9gacQvqEtgXJKPmuljb6lCK5rkas3QJVPe/XVDlb/4mdv745LaH7ce5bvZkwbt1a/t/LdGWurZ4rrMiheJC4U50AEhqA+/D3jDfXGAP/8Z95weZ8BN0TaYve9RYd66foeGzHY9xyrwf3zr71GhZLmIyvHi72u3XFnH/j4lQtM/M5f/75PXLZ36QDvkfnQR62Qm7lFpPvK73zeZfSrD378s/n2WfwWaU+7MLWsRfqzAyzDXY7y/vcfvV0I69h3BL+gjf4hkLW8IuJzN3W+M9YJPe0OHLxMQtmd2l5G+UasoU4tNC82Me7/yhs/NNhaEYz/6pY56Q82+oiboq0d3AhemQCCeZ8jW8htgQDCUd8YzJ2QfFwjpvSS5PdpP8V9gofKiXsIAxI6RzKcJW0DVLQWwVApA3OVmoXb7Dettoj9kNGg2Pa1+ndqvjtjndBjcZDwIoG4n5LixEJ9WuAIIyqNOaj/p9degQGWRn2eso/WLDszzcq3+fvuAMd4P/ytHS92qfbqWxpjUBNEnjawC9KSxMYQ9g/HVgSrXGa0A7O70KkF3Vw/fv/1O2FCadeaqlmFfsaw724shGlV361c0yyH2Uomi/9ur1C2djt3xjqhh4356iRwatUDG5JbF46gfyti5xvuV36WMT0rWtItjfqMZdymc9VvbrdHSLlMIq19T6hTt0CvK9S+AERox58Z2HBgTtsiToD8W/7YOW/U6vYrx3MUWnRRon7/508OB2jJ7ZvyG9ASZbzwHR+9QC3OOTsv3VayvQTdAFz31Y+9cgU7l+08d8Yavjx2osCloCX5IgHywfp36iDX2sGsT2Xjo3lOXEDyhwg/TPLCwXyn8R543J0NzBVcKlDPvwwBPOhbgiFsgdw0mxWXhNuN31qvHdRnh47uE2zeLX/snEeOfLUmOCiX3fvbXXsux9WPrDeu4hiPMaz/+Itf7q3qZtKBrHe3rg994goN/PQ7rjf0A5vLn5p2xhrewP/2pJdfThz4HlZkzFcngLX3V6zqEK9p87I+bKhdkQCnsQ3MX3LvVWQp7BY7jfeAaFZthJUPpvd8R1UQifGSbj6F7huYEaRoevjsF77o5aOOTPz2DUAkzscEQAt814evt2TjOVCiBA0YI9IQntFJeSz9MfdZ3du+hz1pnXHFQkBGg1aB9rmdIVqt20b67CK0uAjCLKcQs3boyJ7+3Blr6CWlPlwkMsWYrw6WFgPOz671+zXvvTtAQWXD4cPDZYLBPYZINb//+fuHN01fqz3nli9BzL/rV97atNvgmE6/Gummsj0+7I6KzsmVCX0LVCFLYzSmXjvoWFs/dv/VjlEwgq/7/iuTxas7g8c7wf73j37BhcJjz7P6H68dlpSVk++dI5qNNehTn7veHUjch6EoTy38r9FeQZZ5w4YfvuO/i8lOhrtG+T157ow19JIST+WWEoES2k2wQ52SnCAcvFWQ/RhDlO25hsiJ6i9/7+2KfjPU5qF7bsNFYISKVPM+/rlXka2qyEpuHg+6lvf09BGXp6qcU1zTleifJLvgn/32qxVYrx10rO7uGAXwRLsZ33UPRUHQQAw9UXjw5+ZdoIFaUqWd6xxVspRXaTTyM3N+CyqDmUraHNkP9raR8dEzWBMBw0XPqQWKnbGGr05bT+XoLyCANKIYX3rvae1lMcYqA7faFi4KBEbQCU2+6xQbM/k89FHbChZ/VyMW/CGiEyZTERIz/RVD8mUVqcKaLgFbicOMAEDb8IGO9N9+z5WA8Fu//+l4efb5AST1+BdfTN22kPFHHTFd6GNLPGZXba1K6ZrCs62t/lrPTrku2Ity+FtrXClgRP9izVovflefkDKlXadOK9aFdmdy67zXvve0i56zYqx8iCBTT2FwR3WgT2i1e4cxX/Hhc/eISmWcX/Sav538tP1W8YsNzs1KY4wEQ8WgAGPP3Ob7rjZbwdP/wY9f71/rtxO3VItqeJnwVuIwP/VlV7uyfEvad1hzSbVFXutbYBcg1HeVYGeYRDa1sI9+sXMXGCKNwbC+8SmvvFx5OuGO2bGj3RtXjbVIX2AZ61rjSrV9RKXbxjHf9bXavla+jC/6E9NBFmIpk2+B+6eem8+KsWIjpFNY6q+poqleegRRVH6cxnyFebmjTCvSUZX/GtdUaSmlVaqm61XoeAxWP9oYxm6Nem8lT0OmYbupCGbA94qLgy43ESDGwOc+f9hqOT72OdsIjK69Kseb9VubYgZxJVqtntjajH4hQpERmP5j5y4weVMAVfLEkB0iBaa134e7H6k+r0wFQ/XsvafNkf6Tpvalz537UUGsFfzC+MGghE9JZ8VYVV/wweMAfJMG6Ps/fw0AqFSqxnwlSIQCQGWLvcmX+YTnX9n2nLhQ02XCxkJ/9mwaEG1C5wBZz2256d+oFem71qYEDG7uI3Rp04o7DMV4u/q8wmB7CXRnJZX3Pn9MOuNGZxeuOWYQ/b9hAJkUDolaRShN+vMpL6oFmfys4SL/6U9dMVKFSBCy2NsqQmAXQUtZx26sTkCC1lgxAhKYBcribw1tHN8neTNnSgpylVnLNFs8IpjS1kqrSHse+Yyrb+jUkbjOirEKCvIj/ImX3dx+gh/79JWKgbIrJhQHsSjQU9vL3LXm3/z81T6q7MWYycEd/RFzGn9HoNOnP19PTKY91ZEVIXucrk3RNNBihq58EF60oUY/VVWBCDx8y3xbvKteYhWH+vAULhOHnY7SClszyJi6NbbRcR0nfu87UVIeTJw+agU68RmPqOhJD4hMcrenljpZrQzP8QfgZ64Aj/sRdtOWG43CuJHPKG8MQGg7phydj+L+qwpG1YYan/nCFy9Y+VH/rZGq3ha6vneLzLXbfVaMVci8UgcfIgCdmyBtkZRZ2UIMX4dkfZAGT7xvqQNKFRh1z9Kzg7sn6AMTjP5vCBrnRkwIRJNhMps7Gfa2CSd0+pO/FjP8Hx59FTDkHb/3qQsRxNFmx84rPA8D1oE9g4Fa9aF9tJXnEY5umlrfOMhz6jTFdqdKvWq7LksgPKdOiq52o/82q13q901Puxt0Zf+pweHduXKd688KgIuy+MvjjvLYn5d7IKt1ebvv/uXHlfbUyGxUD//rZCOnXmq6sKNviehjUb/v+1gdc9t2nzre+dkw1uzUrMTMB4mqbW1iJeQg4ZiRhcZ8ffSz3n5pJyMNmxifkrQnRFRqVoG13CZa9WaXCNo2d7Jp5bvEdRiY72htaTuqxSubO+1REGSQk4a6sX2XpDsUKxrDRVYuUaaPx+ib2Fp9xfRLn8vwYF6R/OZiO+P96lyVehV4BDUu/UaM26m7K7mP63f/yvU2h2gMyI+Va0Ui6dn5RdPTXKCLSGTKq7QK2Iq5h73TPlhjFx5V7XH7PPAflA0eJBOMnnu4KG2JBJAy7loYHO3ua/soj/Xb2TDWOJFhh6DjNMBHGPlYg+bez1GMQChHMuYru0doL1tzG6hYdus8olIf8vCrIBA5zGKlLmvlx3X8CRl0S7lTDJU19R4gIerGXzWRTc1vKH2MQ0s/V4TqnbqQ1i0FozpOZsqKIiJYq7zytRhVCAZy0+TYy0AizQ5TVjuu1nA9yqRqD9Wy3ypl95AhJaOAq+aJ1WiFQnYT8If/0lsuGQvvD6F5DrGphd9jBK2Zl2WhgXPVjh14adKlK+btWCFASSYBaNWmETntOf12N6mhmMtTTF9rtu1sGCt2Mz5S/EQlr91EMOk33gH5OFDYISKSwQAY/KqFWyrC+Nya56yEqC9oywqVStktdGerXrosTHGnaOW19HUCbPt+1pD8Y33Z3s2yqskJDYv38RVGk8HvaB+UUfDtOOCreMKxXM9f9M6r8JLkCRO4aYq7pcSyDcQA0+gh1Hf2E8esaTDaEj6JrMxJg225hwwp+cSwwTwCuerC6huhLymD+oubQPCZQ9aX/FD7Z9J+DOO/BrcNx+vOeYz9pn8138RoWJohvuZxL7orC75bVeAE5NgSodamr4eASa5qUfWfks6GsTKR02n4yUmsSrjGX2vpb9pjj7rTWF52DYi2Jf1HK5vRsfWY8rySJyop/QtznFURg70BymOeU+pyE2mdqHhH+EauSVGDweSfKbrSYDZQLRmBTmo2QDA60bG9WQ/5jdHWuRN/TzmtNNrtsi3V7bp6V3mAdRxTHLNtzIhUrLb0x+zdoFsmmSPwiNbOY5i2kjf1QCXsJIyWZo7NHu2EbSO2ciYDUaDlElTVE3Ix5zP0G5stdcCVB6Ypaf+lbZHiBuFxro1pzvVc4SSqvHNdDcqBNmnOO835zf19NozV3TSif1KcvNbeZ0/ViQMF4EEkY75iNwMkQLpee1nMZ8lzYqRSD2yP7rCSt4ZrgVBa9TDa0CkAM606ed1QZrS5WiGYboljtJ9VG3uzOvBbYQALmohgEVexMCHtw72SdASknSJ2s3sPPyfFzRb4kt1wWn3uxG9fxUmRflNNDFr3YJPuXEkBUCHf7MajdqlC7ev6AogJgcjys+mn1Z54XVU0dcjzBeli/Zw/0EQsSX5XqJojxRjMcVFilCbqfGrmE+s7dh49Foa264RP+K0BdjwVnQ1jraRVPgg7Kao51ugsN8u1vCwFs9LgHhM69iDOsQ+dkgzBiMpcSH+WnLWJ9bou4cNL28Y2RT9Fu40lS/2iW8sadREEQ1kxBqtlacsD7AUJEotqTFHbrGxYqbXyMs94VO3FMxVKPaZd41wzQ2YEUwFGhgKlHfxFIFb0HWfiZDVHmt5g9RVgjL5ghUg+WYWOzTVHyFKQnPO9u2KmrIqJ8y3Y5go1vsR7M6xjNjFERhRdfKL6mrrFe0vUZ608Igansp3Hcg3IwRg9FZ0NYyXYAi8679ByUyjVX76DoqMO/LHaiCRAAN9EJ938Mcf0a59HGx/7ZIKCo96g4iK1bGUxTTwXEHUOWy/FenEuAIR25pVUTnvsb92UKKuKmCOK3KAcgpO+4YevhS0Rr9jyDBYByKyHBPVQPn837Ves6jJrQES69rozRBAW7Yj2UJDnXDPc5tRNIKJ5JvapQnIO9KIwhI3RVZzMEb/PTJiicLtqkWOLNlRBRFz1Ux+RuMwzS5ICXQXokcFEhL/eDdSZP7AEWyDBhLy7MRInknEyY88tef9sGKsgGxB0kbTB9G5+HJ+dch5tWnxwEZkYVVZMkKoJe+1lU+rRmzZK+wx+3SBoRySjMqER6KGp8Vp78lwiTfQr5f20AuMvURZ56K7gBMQKIJL2Oe1UMCDSRjcPgykgBET3mcrnMebNuTZzy69Qp/mZJX8DeqFsVKaRBPz0Ikrf/ME/uMzHdrCKl8RVqGp3p5sKPewz8Sjjyu4yMnPcMqKdjcDs1AO/YslxnxkTdYMxwRBbFIUfokZlikFDvvlpb7wse+lobWoQql199LMGLyBZD9/HlNCU5nGK4xSNz5zoYEu36WwYq36r2JYiEf+Wj4ABuiYZdFybSwx1FvX22H0FtvTay9aod14BqXbMKqmWSq9VJ+2Y+MaeE7m6cUIAcbsmqUGxvGyKOAhX33c1SctokZYl/QsBxsVY1GPqN7QRqixFe4NBuEmqJmXKR5NBn/T6CaretR9hhpJIaXEVrihdwZquddQPNYOUEIIqpKxaqQgGc5WMAC8TZjWr2UGNRFUHEc20rfJ1VjjB40B3rDw+q3ynXBuKVhW/P/OU6dg/MaCJac7xqC0ZXMkYtYB3Y88tef9sGKsfXvQDpKEtldSSnUBerphl5NHOIxOD6TL4dMWobG9L16uVn6pIUX84yTPAo6qNZ0X59m6jRBQb8snvoVWPm7ruasMJujee7Nz6MQFaFsccRlGmwEQFVTsDsRLjWZgupNAGUGeIDLtHeieJChwzlMex92ToeaWs72ZWs7bKE5DkRB43ipBJK8RGQJiq2la+XBewVyFtHccIQBJxc3kfMc4sTFghxvdikAHSUu+WTU9tGumqyGbeB/EsiBD775LkCrQShF3RyzyZu77yO6/iXzuvri2gLtVWI2Zl96Eqf/EJU3ytq3yOuXY2jFUVJLtdRGqBcmKaJc5FOwrHj+ooVVRKr9f6/j572RL1y3koaTtRiSLNtuHWyiPn528ngFMEJbAO1dFgC0xi/GXNRvXMMdd0n7E81IuR3GVDAFtkCro9GJJQf0ontbE9QFWfog42vOfSEzITVW5TbJ/YhgwAEb3fE3ua/LR3unrDxmz/GDEM5gBlzVCsT3Wu+0Xc+MB0qHZ5d0R0kgTy5WhSMhmEAJCk0ZZPHlUwEpiUghJpKuS2Nk76EF9W0lW2WOs35xjNDfn5g3noTjSwuDez31Wv21TO+6Z/6w7JKnyMIhp/LO1a98+GsWqvAAQS6abANKqiXbFFSVUfRG0zEaHWYy+L7VnqHLcFBqofmjFSs63HUGpjk7n1OkwAKfi69091NIoNbeaP4ABrkv1geajzIhkaT7VitAGj6o2BEXQPiO5RMa98jk2WchkTtju/1/zMlN/UDxAIK6qKYBquMHHbiJTHQrxXnQuuAWiUV4YKL0Ywi14AFTPL+csAURNmcjzHwP/OMa7gfEZtGX7HgnvYOMCQlRW+I2IceFd5E3NWuX47vH9Xy1VQfOsx5+hGEHFlbj4Cs9TuAOahTnyH2mZjnGWfO8ej7pAstMZI7eOSY2aszHz/bBgrEh8vPe8KL/IuSp65EUv81pmbAeCk4uA2Cg72SihPokuUPzUPUaiumIzyg41UGpogTZOPqJJ5D2szrlzu2G/2BaVergIjCGbs2Tn3DWFJmfxl9x5BPNG2ZsQfViggtX1WVaKTYGbSuX7uhINKS7vgkj7TmhGoXyUYDn3f2rp68QVGy2JVKiBLvISRkyIi1/cbkay5f/yNKYY25KAT3Hef19hvam8yWtSVM7ZeoxKxeh1SNWebv2Yi6xbBatjX3TAguwCZfu5Rl7tKcDagCkIipEsjq1y/qwzamluPtZ+z7poNhsqDV/Bd9ALshvKae+9sGKvSZ46oo748O4HPbXDruQj+0bXG2JuqIV2dwLCy9N3Kd63rDgxRi64M/E25U1VrPKMku/QEcGw/aGsUjLV21CvVhjLH7N6j2wnfp8SqhfSoWCubqz6TY0AkASmou1WBRZu/5c09xvCdFZAqrsZgspHEF7Ca6yGjE7EyUm3pitF4xHFsa5esVom5PGM15/jYpHNlLWqbdigwZyCa9jvfNd8aY3wIUS+i2djaPEu/STECENdk3tHbwLRzjzGAThUMwbEsYtiVHO/iHFwGp7TbnYKin3jreRcdvTiAVj7HXD8LxspHrKSYB4mxSYfiQx7TAT4rCAAJW0lVHz4HRVwNTlWxWs5SR1eoDlT9LiOIwj1mmVDo4x6SYZhvzzM3kUYQlqp6hZy1yoZxO9FyzOAhJy1W0pJ1RC2n2s2JnTT4uJIX9tkhMvABriAyMr63pUgNDHUBmJdp6LsxJB5MrYdU9wKuU1gRGauwFMMmCjpyVdsqI/tx53TRnkh8YgUdbMd5LMCgZLoIzO+979OX2cn480YE3BS8xipXTUVcZWdchoEZ3JQ913fO70Ms9aJN5JdXbo4dGKyaBxY0W6CD5iNo5Fr1PiD2g1tVK+1a18+CsfLhO4nxkUfSVrK00T+WwblRUphAlVQNkmAkl4gmdIVd2Xdy3mv81vam368SaASVOJlMidyjivOUapTcX0yEgmlE6359h60l5zPlt8EH/C4zetKNpGNoP8PWoUYU5KMNnLJlJDmIR66XLhEwQFYi1mGpIBFqYMi3UqMOub1EhiUIKdc//tZWjVpSgKDbvNnOl9x7HeZPIJFCbcwrnvdoY1xNMkZd+VcgI/LVFBXBf2oO4sYK1iEimlUxs4qVBKAJLlSV2eumZD5DRzUPlpHTZmFbjQF1MdQkgkTPe8x53/TvqPkYK1tTB8j2Uxjzzm0AACAASURBVNFZMFbdWUAMZmlSo//aNj9BUnx0SqqqqAw8HpGovfaytV6scUq1nzjIIhxdqbTH98t66mqw9orQ8nqOcTLHZxGGwAS8Jrm61O0EKT+SAl9EVUbGKRo2+m2K0hzby1RThKhd0cSupGI9eF8IAQDqekmtBP1YCYZDE1MMlVepH3MdRJkDDFJoU52nzTVuHKH/KGCVIYrfRIsx+A4Z07nsnDeCEIw0tqkFCOTZgxbraW+8BBDSlzG+toKVPrqEGiXNkgKh35g4i9ymHLTExQDaFGzrrtKzajzncw6/1Xz08IEK33DTbTgLxootk4+uQikqqYDcW5NijFzh2jJSUYPRt7PXXrZWnQVbqSJnEr7qw2vVDlFVuIaKspe0T7QGa28+S6ZTQGBi0M2IYOprku/XlUzWmNj/aA4kzQnsGwnzpO/jyl9V6JB/XWRcblrvKi4GsLdMY1jn6EPer45OUtQPW2Qm+7sCKCH48hx/gvvy8/G3YwdNg+pTV/ECb9CsSGqLYIZD1OPyJuCN9or2nYLKFQCFK2Am+xCQmy56arhIm+OJi+KX0eb85vxG8Oc9tMw2vkcE66gVRCiBFOB67Nlz6rfkMwKxWFCMEYLWqYWGs2CsOv9XDMAION/0tDeM9edR9w0/xuDXfqbRv0ImKw2P2cuOqtTAw+6cof0n2lt8zNUdEWp66RDU+07gg97n1kyntI+qtbUd1tLlq5FwomflFalikk7krG5FgWLXkmTGCkNej0fV96Bj1d7846de+WTmMI6ohmVy2f875pnPVXHybFxlmU4wDy4nFamWjzbFKh3XGLeUg7DhSpgVeIxEFVfbxlceaw8oWPIlrxYZTQ2BRy3UkFCT8zG4Bd9dJhg05WMSUKBiFStlMKEaJb6rpUitiVqrnK8qfWzA2nzpL78rBBzagJr83ClqPnrqqhmA+eIUdBaMVWf7CsVlzFYmlzVJ4AmrPBFoImyNYBKRoVHtt2a9WnlHmzBpqgAFSP0MnN79LclnSMhp1WXt66rdmKQPaMuOYNzH1EufU1HpMNJIbBZB3z79jvM996I9kRUu96MfpRNhXv3GfA0BGPeAlWFnhqxGgnIEBMW8WuffcmfDaJ7LfuM8k1WIOR9XOkzWY8QYohxQ7BHFauxXVhYxylIWGFv5q6EZAt9gu6VsGIgq5imC8JB2xHqyatQ1i1WsJLiQLewgV4+VFsBnph4NP6pwnZ+Pgpdq47/5g9dCdmvjjpzPOfyOmo+e+sT5vCf90mnOgrHKyLS9xEZmA3y8t+S59h7sD6Im/QiV7KIqrtdetmQdY14ye1WAUYUoyEW7UqXKinnF8wrNGu+f4lyGBWOKwTlY9axF2jVlhlGlS5lG9mFvXkl3BgBlFZq9By+gIBlt3DBUGEREIFOmqkDuRV9Q69M6yux4LiJyTa+mQ79tr3uMY8VrrWPeLk2btRO9ITl9XiEi27S971Gm1wLukE5fUxDMRE2jvTC4XvJ5VuiZFKzpP4Fs0f6XwYWiu3vdlHJ51W/NV6idK2JlqlugYyh6Nqh1mSKUVeXcxDW1Amg+ekiNYqtvevI4Js1ZMFaRnnlVQMNEu669RZtSOPYGmYsB1d2GKKL+/CinqJaOeVH5WW2A+kQyiLQrGPNUVVj0tcz55N+0nwmI/jgXUp3IKqClQly6roarM1gD4LZIWbDh3sEl4GlvPKgHuSaJF4jqYe95rJioasWstXE1zfuaYjsEQMMz/OXdkKjHmDBr8PkczMU2xKN+xwbK1+Tiij7vECW+IYLCYn6ev+bO3q0tlC/psLXp62p7tVubz9AxrrBBIUdC6CZPVsUKONHWKbgQwQya6qYUy2qdK+AMuSYpUPi9RoSzdkvr2CrnHK6rocvmkFbddFkbAwq2nj/2+iqMFUM5E0SvfltgQYS627Cb8kkSSEFcV20T+NbCsHBXYRAZ85W69djLbMMaxypOqqssXShAYlJv6tpL2mrpj3Mh3VjcxL3l87xUfSPzFiWd7WwyjOgqohsLq5lKzYa0zftA+m6RK7ao9hX4kpHQqrvIsxJKW2XE56rVSmxHlYe7ysS2V+m4pk84jBASr+CKL4eo0yUHO/AQqeZVq9RKq7aJPhqyx1bPM/aN95vtyYDnyJOVc9VfqoeN8dyDYq7q0LqG+lzhDyBXiwS3Ob9Ff2wFb0wD504CxNB09JDjKIILe55bKs0qjFXH5F5n6EptZgO1TUxxGfHZKUdVJvh3ZQQdA4g/0XTkq4qwB6U2pR69aV1hRztX3k1F9Q+SaS/p38bql4nlHEg3AdV4awMTYjg6mVq0edInB4bx3iuGwTXBLtjzZD6u1Lifo2VVfSvDQSUs4WaTGQNuIWoouNc71sjT6EY8h/CVSRNCVn+bztWPZgivV0cDPsCAIIFTvsNs/hE4OBb5K6Nuq7K5ph2StkYf71b6fN1VofX3vsI2YDOZvDsdkUZtAqtZKJpqsq++eU45xiAeVVhK83ITE9rPX9zlSl/crI3x2XM6aiNnjPUQK3PaOyag9eQ1J80qjFVpAcm4h4b054IcpkqbPeWaJgZMV1WkhKejNy/JmK88p71MZ3fzuqmjKq4YqcqViCq6IYGlVU9C3DkI17RhtsrP12PcWgWb1mSXn537O/pVu8+qm3GbZ2YYXBdMxHsAUUs/ggaVDK4PY2qRata4FVoMEqGfpZoc39VQnrEshCX8xX2uEroE3kTVZsxDlHK0L8f78VwmrkuHqyTLzzGfBaoJ+ol5xXM1CQgiQ6RbDOXFuM5Dz8R7akvihB41Gtj8tffyXUp5ty763TYv4TfqntBD4C3qEu3plB9XtwLl5obLZNWMFwF+o2uTmoexwCHWQ/X8FDOYzy5xXIWxKq0D8+5Z9RicIfqB2Tj3pmRF2ZOXz005RvQckiXkxCiYJKtGtZet7V9btSMymxjrVfUk4CsoIherfKprrbyrtDdxTdU0Kjnfv36dvYNsaj0V5gjy7nkW7IwLbDxpyohIVVdk0Rziyqbl/kT7DEIffTvJ2xCagGAgJw4FwF7/yGg3ZKLNbkTkXbkKXRZ655/hHiv7bEzHufXjPUKuNGUy2b43BGSMeY+tqk0rMp7yclmmGTpq2yMkoRRXizAXXaTiHOGqPqoudVPC1HQsudtLC2Bm/hEBjjAeEdi64GQAmc+OHXXNi4CosWfm3nc+rrYIrPLsFbyqZ5e4tjhjZfXnaoqPOW87VVVaQEPeQYS0cQXFpL8G4ehOXaP6U8Sd9l+BTJavvWxt/1rLi8dor4mraH0uda6vJoWYT3XO5K6KsefdVXkseU2QStR+qN7S5rpkeeTlagDXCFXjWbBTFRjt7trmESijacH66cqU1crejypoBTzvqXrW51BVo++4N2CGgRVkbHnFSHmu8iqmy32BewC7hqj6lgQGWr5bmpmPaGHQxEM0tqr2WTb1sKzoZ+r9saNbr6GilrIvdYVUN1wjzEcSSIQ/77GEUEO7xlbhqt5JG8cQ5cd5ZI52SmDf2sBS6qo5KG/S0urHmwK9tspfnLEqBfkx90gYQ6q9qKaNjuStBs257oTIqkgSVaZbDaqISNrLTrHtkvXNbgA617vFXiU1xza0zl01ucpopbuJ62oMospPOyRS6RqkmhXgR1TDyuxgGBXjjIzR7x97vaRaOQtp3nfFWyGyjV3Mdwep9nfl2uvGYZQz61ftEiRit7XC6wXuRbuiLmAKsZafUZu6uo2txLTFGsTFPszHiJdQk5PTDP1WsI62uvh98CyrwCyMGmAkmgKc5/gOjiVtiGNocAGM9He2Z1NvAVDVZgxjdTTUazaTjD03577AzKzJaeXlWLuJulV1WJyxugR34FTq3VwRpf9Wp62NAhUcEoM2O3kY0i7bsHrsZbmdS/12As72FdU+ugBVUnNPHSpgVM9za6Sp3E8UdmJwhiXLjtIuk4/fsraxaGOLqnjcO0zLUVS5dau+M+9xlKlEEIz3xS2AcozAJVdkeUXtc/noqtl6xv1KTesqB4RuRQfg3nOHQXFxJSfAhv6MGq0MgFJDMeRGQ52mYBxQk8P4CC4ylRRcor35nrc/MO6vqn/BhJoKGKuSwhCM+VhSa4Dafoi0WfO+o3DgM24ggJZmKukGx/tE2FyTxAXoSjhWlouPHnMkYxhhfUwDM1ZmvL84Y3XQOXDHHL3jilRwSqwg5zqVV0HIc9o5v6Pqz+cduDL1jLrUXjYG9ze/JY/uNZl9AIX4i/RUaq7iwQ7VR8katd2p6RG/dLXBeYTNx71z16ifdkDjJecVfDRPZBWaQiLff459PebLOKTec4clAGmumJDGe3Z5iX0kU3B82saYRibeGrtPvOfeSwFibLWk2plJMZLfJXXQDcf7FRDIe/GoDybI9zHCpNGrQsx5aaPFzCK5BVxcAerWAoANquypB0H33dfqYfOcetTs82tvHtbacN93XanCoz/u1DpEf2hBdVPz6EkfeYTg0rHnpowLzQrM9T3xr8fK5v7ijFV/I1GTY6qanp0IqgANPY3rTWMcz7gzjDGK/SgzSEnJP9stess8Jl2LqTvZqMKbapewTkrWThJeP8VRtW9EoILE5r0g/KxBlEX+ruZyP7bsrtQFZuc3k7+NaNOqdmRh0weerVYWgnowPbiKwh0mqqV71HkGm1AFWNnHXA2p+ch9rBp2zCVG4BcgsEiCFWlrXNGRRvsl9sghIsoRz8Pk16QqvGMFXJTJEDIR3IPfQFwsIMRwvQojObUNMnI9AFrPO1dQbrT3ml7UcPRv9d7YUQGcvLOf79izU+6zgbz92YuzYVywWuU5Vq9DpCsPabPNf+i5oXuLMlYag62HCupDOQZCcPBl1GWstBN99MGK9489d6/GaEc1+owvNAevIAoT91r2smPrNPS8AI8cA1i1KasaKK+0hvKM94bAZDHdTZxXE4gMKMbhjXVh1WNEqni999yVI/GAIVdY2ssALPHuWZ1mErHMfQZspMrmGO8LSKpUUvrT8o2q8jeIhBqdiECO+cZzASdOilnrQdpDHORX1+HjlPCjejSW4XnLBx1h23GVhQFVeBHvYH7xWIGK4v2lzrVJR+1DjqpEWYLI2DwgajQiI1BIPBYbwDzr2G6Zz2x/dBdkrs1kP05lKNE+y7vMfr65nGN+o3GgjAgu7cnPBdmQTduwlX6PCMYRENpTTpVmUcZ6HSD92RdIUlSWATxEvvihmJ+670Rn+6E8p96Ljv0+q7rNDjeCivfdqSPaZb239rHlauBKBjebyjbYWy/jbE4JWN6b95R0UeqMErH7ZKKyzHQp3H33lXA315ZliE0Rs1mFdz3ZXm/RZz3sO76bHIKQumWQi89xdEUTXTS8f/jevuv5B+ASqxGoisLlc/loZCPLqoLCu4pphY8b2k4tlldpgrivWps+EhDmc1GDVa3qTacrWSsAvemOPUbXGutTMSODxGPzPKj800YRAiIFF86tW2TcERxX5efChe8uMnnT+j2MqfVN7zGD0NaamylPl7vozmQ9ho49CwS1L2wCL7ZkiXlvUcaqbxVgAdVlvFCBC1Un6As1ZKuci26tyquuuQKMq2uDZstYkdIjHYSIR1wjieP9Nc9ddeQwdk54SM+Vb25vnQzHN2a/6c1vbjon2TwpuGKqggjEdjOwnAyn1EEkpe4mfn/ubqQdsBIGZUp8N0z+mbTBRjcd07iKrGK/xnYdmPOnP3/5aM8EYhluv8VqkzpmNS3ptN/ptuWzHrU7jkXscZWdfWxF1Fer0ojiHbLbGRrxWCZlm1pHVi/2t+A1y46IZrElmGNUZ2f/UDUSCMDHkPn3IMH5/glWoXkolxvjW+d7Q7/FpTg/ilYfembuPeOXR61BT149GgI1TAiRChnRnt5TTpVmUcbqhIT0FtF/cbWRK6Fxncm8RapZ5tgBWnnG67p0RNeZ7DpBPNBIY/aymHbpc4FVOepTFBCOCayh287YnphLtyvn5+DN6GfthBE84rOqEh3wc74ZbdUcofz9iVytItY4eVK+jNm6cdRem22LTIC68GT1qM8bJIK8Y4jPvIOM6aujDNU2YmvNpL2w5Sfs/rikG6JWOrVZlRnlrlX9HcGhKsNJM4/LKu2x1/Q/FfHraj8iml35oOZuCV6CwqaqXXP9MXPwDUTTVU7T+1uTFyu2KaSWz3FWxZyekt9QWvuz11fbvByLLUFGhg1oCS0AmgaFqGN9jRdlrEpyru60jcbwbDbao3DwoegdxvusUG3mc8wRtw0+kOjTxwAX4s29GNKMssbsZcfUZ+xZ/cfyDiACFVj9u+KuViRj+bMSpM2+x7H0a90XwZptlUOuTtq+HfBIufpQ9tbTVZ3oapmRakfUXuRf+Vr6LPcrd5VWBJkoCLVW2bp+kXfcCtBx17N6kyE57sgrI5vdOanaBJ0+dCU6NrG3YtFSHpMeJo2KtB8O+VHDCKh7ZG5VXktcs99FMBt20t+UQd9fvZfXN/sHUBppqu9iSj0FsmVTw5Q8TKvJCxzBFHLOpD38KYROyaM3rYLYmAtWzs/+jjv6xDT6AjN+JF358qLF+73HRRmrqizRpMYUjeHAcsVc5eIq0iJtGkiFa5C2ybzLgz5efDjZZeUuyfr+K5XcGnWr8mz1xyFW7eNffCGDqVYFVZ7xmuCStfo7ljV0DiOj7/NuMAc/0x982QMehxnwDJOfwKehjcUfkEGILKQUzv6q5KnLzxBjN6AA6X0+lgEz4p4RlLwn1mAIkyBT5Plo89f9CLTqGBn2EjsS+fCXXRgUiB3HOc83feCTl89FFH1Ow29NE9lVrUobryEMUa8YLjLe53xt3EUsL2sErF/UOuiihY0d1C/1Z2UbyW+jBbqLaYfOBSlWGIOh56p77//YZy7rWgHxqvRecw9av6HsNWG6JY4uGFqhQFtluD9y1U/M33quaOIhH+MnY8+dKpDHeizGWKMzOPBoSOl9SEJTqjg2TWzU1PPWC9B2xcdjEPGYt3FQK3tZTLf0uY7ZedPfiMJUXTlVyqOuujKs5c7S2x/RbhWf0Y+3krJdJWEncUCi6pnyjnIsXOshg65MB9ZPVwy+mUqgbKlZZdZ5MjZfjvr0kncEiziGWpJ5zANmyPMwRzUyWfWsgNzyY47fWcw7n2sLH0MP5+euwVhXO+Lk+/w2xGNcNVbplrimxoz2MCHrqhT7zVUVQok25Ghaoh7OM6L259ZNQS8KV3Pzirb7MSBULIM9hfmO/J5yW2PaY88P6uqBzSuqMrCBU8cq7KPqZebw2G7er4Jlnl+rMlrXFmOsTuQR0CHIpgJxWCF95ioXA9O4ZM8uL94/9ghT5wUwQUVyxc29OIhMU0VX8d6aR1cu2b5kMHCkT4FkWY3aUy/tb5XzPeq5KKn35Dc3jQJEVkkbbSjbXinHyZzJkEFiKMCo7hmrj8/oO6tWRZtpdseJ+TmY+WYqf0WBYTkiWc9YsR7kHeM4t2zusV6e65qDDQkzAXllNwxXZK0Vo0jTMTODdkcEginkqn5ok4Ue5julzKG0IGbpJ+aJ6FMZEc0ixUGWqmbP4Do1Yxl0OFR2dU+AXCW4VemHrjFGAJHRvjF/z5iP37FjdOpqMuY1dq5f+VTVt5oDtAiZFEazlpJ0xoGHwdI/c2gxxupHE+2UNixvZhwr6kfSgvaTVveKqQM0ljN07ooE/8hIqtj46Ko9FK8H9/XWYPH5tc5bq57o72VoySFQWKt+BmGv7Az4eRHCDDeEtUnXFdRskfQjreD3MhmZIAxEUNCQrT/mLzjFcmV6Toj5d3xWxCzfTFWe9tBsX3SguyqOeXpuxJ8sULgVWzVJ+CxHAIWCM/hWNHW4z61pRS63fCRbEZV83qPqwiywer917NlkQRDY3IhKrbKr6640USnq95gRzdFGjsmA959VkApdcY6syhu7puDRsoGPPZ/vqxKt0Og5rb+1Mzs3D5kwfGbuUXuufuW9+RxMY2n7UpDeLop0WYt5sopXGzk3dsJijNWVp3YoKqrKiEa0qGcQuQqZqlJqlZmvGwowq1Z0BEf1U0kufuDZXpbzX/p3Sw0WtwRz8scYP5Va24bFMGGVr+XUcsbSO+BRW0aKPnQwi0iaH2JEHlXbeQURn4vnmgDcbUlgiqtebVzEk86k/ZeJNTMs0raQiqqfh9RPrBSZ0DOjkuFWKOlYv7za0gad/X1bKmLzimafIVe6lsBqPq2jkZnyqj6mNyh7Xm3HNEud6zeOrVjsAgJmpAhmNM447Y+EhonvYurKK+bBuXGJK/NUTtvz2zkYsGAviVDX3JI3BOnNpyedgqOCbc8zpNH3O7s9GU2L663v1z3CW4jisTosxlj1B4o7SESXlajHjpVqDe6YpnfiiM9MOde5O4NNfKGt8Gp+kC23hCl1mJLWiCIM8khxReKkZpCDmG7svKXKiq4sQ2Czsfx77iPItEKSRQafNQnRHmY5AnXG3ENMn79JV6H6txn5KU+cPM9uTkye/FVuZtrHWAVFElSECn+IKif/gw1qxGXC9+dqKwsQlAsi2frHcHyxTpGJDAE8sCWSVxS2Yz6tc9298qo+pjeGNy4Sa5NuQ4x3wXHZN5c6iGbWVCOq3PoJcMobeni/5xj7PoPOep6v0hi4ondTiyjAu1LnPbfm+KrMKdeGBNmhfPA7pl5oaSLSXnBmJRibn+awaoybZui4CGPlZatuy7ZIJctWuDWjXQxJX05sOYTfUMOm3HMyxlk6kurUCiRDupZkzQePGpx+WYNatjHKUoWhiwirtal0jeZ83V2Pxr00W3uK3vXAET9idJncjzDdqNKMxfhOYnALgQq96qqsInXXmYfdCVGo2hZVZyad9xnQ1cTXcpVStTlnl5Fe9xc1SPrAZpU3bYmTJgJMRUP9H9OrxWrFHI5p47lRlVqrhcj8CSKyNiksoUGJ4LhcrqAvBbPcboPhHGOP1AzCCrHSouU69fxWY4cJqIe0sWMyoA4KOXN2D+opb0iQHXo+BvfwO0G4tL6GKK3yUEsKb5hDizBW975jaZ1ftj5xEcVoRUkrQ0byadFhYnvSy1tJjrqOTyATYQYDGKCghXhrSdZOvPjaiZA+qoLhYfqsxVRI5gRttKDs6xqyap46eWT7rP6b9BV/RqJpZnTEDdU4LYCMqqhsB2QlQd2i/SnaBPP3WVUxCy5uuKAwITq3ckcyBB7mgyglW05ld8Sv03c6p08VeMYEB10JDGyRQVrUMQY+yWp228BRAW7I11T1du9KyPxbq3rvR41Fi/mbdonjgZk98rkHYFJ2AaMcNQBO3DnASv6O5tRNu2FL2J+TpyEme9HKfkeAeyAF0aGYvHPq5TPOp5Uga5rWMYL1SOOCg7ltaC4QH/R3CuBTq6x4fRHG6gonT8QUpMNtXg1yL0K986okVlLE8RzXEfMhPFpr0qLeTMaVTYfVTksl1pKsZWrkiWDRKte6TTnGSSWrQclHaZmBR/nV5D9WnqrT/FEZ8Yh8+ePjW4scvK13zqqLOmQ7prvLRDV53HZKyXWo3tnGqOCoXc33bsCInBd93grWIFIWX2RJFS0T8tBgN30+uoIY2siCZ7LKuAq2fy2EDIfqFDk8pGmScWf0eq5//t1a1Zuul/mb/thjnKdUEVamEOcRx0fGIfQKQEP1VehdUnuXMQRD5XNPW7EhLV08iUkYe37q/SFBdiwv50NwBNrHEWLHQG9TtVy5HoswVrfxqqJvaOurdNVOKNjShmiJDxKgEVJ2ZROCgTAYpgZfBvXHc9lepkrIDZ15uUvZgiLyt5qEDRivvacSaIb6mnvakZDAIwlqcuJAklyLVMM7eHM5+ppl4I2uA9m+KSMYcxVi9Wj7VOVmxtVC9uY6Vr8r+7V+uaDM55CrZCaMoVVmBOFQjqj3iC0wYAAagSEivBz9xATUIqMjia5upcvXXdW3AsP3Mv+c79zfjDPt/Ya3rFZPRizz+8nbtBESkXuYv+YS74o8pgJ5hsrThtzrmqdwaFAIbcpTBaihOsV7Y4JsTJvP9SxgEeCCpwd3gkmTfm5pnigHDQTbi2bhnntHM1Y+OkE82EIz6RNUOelq88nuAzkP7VYZ3ZXTtX7HFUslYavCmSpx4VdL50d1a1TrMenLZFntEGbwWDpMfGmPS/P146Fe/BHMYCqpblLV4/MKSaJ1KwCHaY89jk0g1QbNgCdsdxagDu/43uFNpmGm5sG7hOKGEnzvTiTRjtvbXsPRRQSvGALe3RxC22Odc7tjfgavcEIUQR1BNgge5DWE5CdPNAmkGwrQ4DvKDCbWqTp34gZkUlEWdKo0S19zHOtiV9l/XWD4LnK0Nl11EHrnkmrROOfMzcvnpq7ORNkb1MdtDLNN2fyPPR4jyPqsAhGLHQSzMYr22egzHp/zfdsP8d5RjBUVp+okPiYm/UzCsatJWHWfNp/8rL+P3UlGiZ465o+dMlz9tEK4WY98rAJLaI9h5cQkjORj/gxOXtgxpFqyFarQD8jBPUddq8qE+kZyAKkOY4Xkqi6mW+JcoaXl15nDzFGmK5nKPcp+yXb0XNcoqXoPM4L9CRNTCp6q4SA/N0qIqrwxIcJ6tI58Z6qvhyYN+pJ2qD3yPcZAIIdJ9nvvfve5bFHMFXbCtH73U8eVq/oWcGQoQIhlL300hCLfPH1Yrc70ofZbydoR5yHy4J3NIU1rQ25ZU/NVcwjT6anXAUV8Z79eVfc5DsDUerTSHyPIqlX0nUypo7bjaFaKdTSAUDWnzGashGBz1wcmslacUkEoqJbyS8s2n1jpeB5tKhUgJKatzlml2rHRHci0SqOonKeQknW0l7lperQNUn/BNnNQn7FOY/ZmjfO2F8ToVFJlld2M/MBR0zpp5s0JppbVSi9SO0ddMn3FKIc0ILp+ZF9l8/NYrYZQr9qfCJOufiNAyufHjgcgXtgE3cg+PSEJW/k7FiuNjM8ICtL9xUhO0V7YC7BRMxLjjRjFSgAAIABJREFUrFqOR8dVa2IyXT5Wq/qYxrjKaE5uigxk43dQBRYQSWqabI6IttohTMlQm0Cmk/+SLn5R4zEkmFkvhQxdw6p50LRLHI8RZI3PTJ+h8ZwCJkU1znMt/17nQBaImSYzVsAfhrGiUGyXlY7ZgqJ6DsfySL1G8/jih1RdMe94LjOivjCFTNrfhial/Ay/HUgx8IBtYuKPBLKY8luAl5h26Fx7COr3ipw8KYu/KdFUzK+lshJxy7ZVMqq42vH5JY66grQm7sruouN3pQHpRT7KnHVJsS0RBeuAyvZd0w4d/RZjHVVXESpxLhmzdciFwHHraqdaKRvgItvXc738nof24ZTZt1ztcp7+dlUf90f2Hkf7MAqv8f4a58bGdVxVtmW3wDRNBspFk1SeC3vrLGhvaQSuzKslyMb66XngIkHwatxxKaY/9vwYQdaIgLwTNCFTSG1shVNB2BZDkwUoypjMWB2cuMmg+tAONVRhw0f5IkyrpMNHO0SsdFXBYO+aSg5UOrfqJEO4ocadQpVkrc9VBl7Y1qFwZqwcYMhDfSqoh9VjRdpBHdzuIVmlbV1rAaQcUDAf0YnH+OS1yue626tVqnvuK0C4+uKa77myVfYGGRFIlN0ZbDtqSAN0zJncKlWrgLNKmzLUR/Ge9sxqJWW6vIG5oeLiN+lWfRkRbh4enQcAb7RIIBmqximkW1e1LR/5aF5a69ur6uq4dlxlNy+eUSgxTRXMQ5V99vevyszXeux++Zne38yL1LslsJvPXXW4E9ZUYb8X/GRevcdjBFmDcjCfDM2rVV00R1Xq44i7qKI3TWasDBIi2AytUnMlBTdldKAhA7X55Ofib1Wp1Qcd01XnAqj4cOJEbFpU2dwb8qU1bTw6kUd7WSsUFisJymB1nFXi5AlqmPv8IZG3iImMNExsFRnn17zmOG3H0HdODkhosZ+0RSLwzNEiVHX3Gv2DAzxtaPlJKkBEG6x9ExmFeeqcP7YSExGNC0Ek3ZdgvKiUqBtmjqmkmj0iQ9WYjLkADJWVmWaVVslfkJ5uE7jFSAKpWmhs01WIYu9xzOrzeG/s3J1i9BvO6Z0sp27OnfOZ8juufHj31YpT7wXuw0ArMmBOhUep0sdrjjnG4RyTWMwrn2P/dfEyJAjFOvCOIbcRnItqz3XJvxVk88Isp6t+w/R4d3P627CwVQxu25xxKNZhMmPlwYoxmGF1ND4qqqdI+icRyHmMXDFMYejmGZlNZuLHqGcqe5n2h2wDgUGpOqhesipkBmWMc2sbPLrybSEm/RjIpzUBmFfriGTn84KTYnxYJT8RknNsja2yuR4ZeytMmu/UYPs8Z+gzVrOZetGuOoajGovkqhIGPXclRn4CRYytyndhX7f8pWM9WueCWoaCMWQXGdsat6qrtDBVmUbriYjimC6agCp/65g2n8ugWpOWAkFLa5PzW+J3VPPCgGQqMW+EQN9ly4NBVe4cIUptRwu4GOsy51zhrIWXIc+qDsxntBvN3xqkIPve+6YLssfUx4VTpQHze2iZK2Yx1qmV1S8tgiTIo2cysKweG5Jp81G3Al5+BBqR7hhAgbaeaC/zI6i23NKvj8krk1GcqGOe1GNajfGoKSqKDJq8KjVF9Vy8huBkRCxV77gKkV+MhKTdaUnoP/WwrKGABwoQ0Z9PV4QKBIS9i/ozKQ71iZN2XMVRJ8E6DjbymhP4g2d4lj8mZydj/CSnCqzxnfku8DVukVofBbtqde6qv6URMe+DxuA57/TSXUf723bedXPkx5h7nd84tumbIsNG0p4W04xhOBFiKnIeI0ziVFIQ6o15PTV/baVZWxPzsQ5RZRxd1NRwxWeOPdeHeI727Ziy1TKiRs6E5pNvIfMT090IY1UKHpqsrFDraHSPOasj7UF0RN56KO6UMnViU3pzEEUmjYtGJt1z9CP0Ph+jAR2oI2qkVqg2fciwb1ek7fMyn5HAG9XzXhOso90ZoA55EuxCcsPvMXuc6XuPCizYVlrk5Br9o9WMVP50MDHtW0PIx8ruSB1EIWuLoi+mrsTIJ0bO4lyf4WzTbbW7dX3M5aGKr1vZkyuBpSpT15JWLGpd5MaCv1R5u6pvPQsAkP5fa7erqk66+FBu611FgRRQZ0XuiDW012z1HNcES1bhFFvPTLmOxkRzT8vnXleoKHjRbp+bYzseqiPjlj7nL4PBhp5b4p7fYeWGZCD/HBzIcm+EsR4myjApUwE/sh6XEFFrSExTydUGLyfbjuw81HtTKdvLVDdmNxXzdYWQbRGiWVF3a09obUVnYPOsVrcM3F/8EFv1MO3QUbufK2/tWlFtaN/BsFoq26EyWvcUDtxNpkpnmvg+DaHXCoqh+wcCUYtajEU3JrUv9PEcO1ecKFi9qlIaamurrvF65ToT70eXNVfsFQJaSbxSp8f8jMLVMkmgtqOPiNU6lWJdqz4eM4dMLa8nvYA+2hRXa/lZNxVpaZ3Em8xxUxOTghC1FulW1HJL0xc6a8yOMdUNtSULokNpl743ZKaRpzAPVXQjjPV6An7OXbYJ47r2oCudNNlNfiq5KS+DAvRkpGMmANulvUxEZQvNyIpWgIAqVuqiWo1JSlBIpc4kra4ZrNgqEvhBW11JV+nGrmV7HK4g5BmBQUiqvsPKl2usjNZ93UAq0IDPKEBEJKLI2FbQAjeIHwrs0GJQopB1OEeKnUsCs4DpyyR6wqwNlSe4BjekigD98f6iHUzbWFS5q1UZC1fpyqUVxGEskElVR69F97pK8zO2WjafJY8Ri5Fd6WI5IlhbG3dox8SkMJV0Mas0MlPzaqXXFEI7Kg2eQWKyYD9lkdQqu7p+jEmhym/qNRcY2SaukN5S6d8IYwWirc0uIm/jBDPWYCZ0JoY5vn760/F81pcrtRNlYyple5mTW2uyIX+RmXFgORgJmKF6tSUVg0CmHVX4SPJ3QiNNSx3V006FERg11GI4DrTeLad6ylbQqGJP+7xakOjLqDDQ8t3VJFC5XJlvFY2Ie9bJnZC+6rumr8Qsw1UNftPa/6vYs6bvObpBAiuOiipAkHtposaTbGflYmAajpp3WkzmYDoYUOfH/OI5E7oCaBVOznc09H3E/JY6d6eUISFIzVprDtCkUOEsxuopMDLOHWPPTL0PcFCQpdqqmIcRz/L8o8DQWsHFPKacH2NSmFJOK62gxSisI2QNfZ/kdSOMlYJEkKLKRG0Yl9kY/cfIlVyWlMaeQ5VkJ8BsMvBA2DSggqmU1RTaP4fAPAJstE256kXwoB/8kPhdSesOrpa/osAf2nqM7dPVn3FeZQCZgf7caz5wyegJ77UUGcwcQaVFVdhF/ZFbLln2/dD7abVTwcJoLHMEMdtirGVU0jLqlgbCZ8aOgkpaKkiCevBNxNCiEWwj0lu0b0sVaD10y2mpsDV7MDHNoWzjj3kYo7WFM4hplzxXAEb4aJEgRDweKjKi2JBwVz2nJgohaKkNPapyuCaotNKaCb7KwVEcs8cGwMl1OkajmPOa89v3yTwn9QAOb4yxshKTwbGSUqLlGnanMWpNeGPPRVUCEwsMK6o4tG/OWd1le5n2CXYRaZG2SstTxRp98px49Tc0L4QRV98IBBW5CqGtGSxWpW9dM/KRvsdGIckBAQTAHKN2znXQfjEkmR8G3J2VY3QRqnwMKUMVc0QS57JbAhzqN/rUVXELwJLzq37/tSe89DIv1OeC8lqCUvV8dc3vmLwrkhFGn+uo3tStCmAd7RxyuSB/wtmRLqriY7ky+miTj/fHzg0qk+Pt8pzAEdToN0l+l0PugdatxXxFb4/1b2wX85UCnQJ5vL/0OdHOeLfMQ3Gu5FxXs+xfbljOKiD9MfXDd5W6uGXjMXnNeVYhLmqUHGsIWi26McZKBZC6HDCiyHrBDRrup4bQM1ax6g1eUkRzVr6orc6qrqvOZuWpREvHt0gUMgIFKwZVQ9FNwsFJmyOJhGW1BJOtKCKTI3KvSjt0LcYFJp2uQqirIym40J6lAEwtqTiWq6O6jviCS4YENYFCEfAU8+S8JUDY904sceWX8xj77SSJnXjIPWssn3hfE0BrAlKAizZyns9IaVceY+HfjImtgBjrwvlYhLCcPv9Ww1XZsASSLb06ynXIv7WvDwl8anCq0Knk50SdNT+5rPjbyEbMNQRyWJvQxOmlEOOnR7eaHOt4yIf8mPoquEdvhGPym/qsGIgYHVC3pJYdnTJulLFSIBOgkh9MrlcFa6zX73jmWyf1je4MvJjKzssgoR7UaQ5Fe5n+Vlmay/kaxQcQjRN1lMydlGLINuzUrmSH4nlGtwoY9FzKICmFhrxTCVKstqfYhrnl8pyDuqXSJU1UYyJkuNHCEBJau2wrog/5umNFRha74uNb4e8YX0LtUdpFyc8V49x+q8BJMS9WWZSTVZT4JXNd9wpVX0weQwTD47mMWfAZBRHUinMIhk3+FTo+f5tz8p/zDJoQbG2MxSEa8m+eah9mPIt3iKumofKXuCdQKjIUvSCqxZBuatH9bYl6aMIY8q1dopxWHs7FbGIvoSLn2xzSHtw4Y6VyfJjCtnsHnqq4ITWeDY9HVa/YnlwdxKDggoXm2ghVDSpVsmLSnSHWI57jVMyL0TBONJaocnE1Rl7uxuALhpGPrQxdRY8hO2Od8rkDy1UBYB3qjAo2kxvFD0ny+ZnW77hFW9Qs5PR8Q9SHP9wz3JVlSD1z2LlmIEJMa2WuZsMyh1a9ua75t3ZVxwCCRHz/OX3P7wikq1xUBCVlLYhbYxkuLmsqWmXr14mbRUUC+YaQ3dVzXhPBnSOYcb+3juZ1TkcjhrFy7SHnJ5iZc0HPc8emMTgC37smKZlcpaVQ9d+y8c+tj54Wx+BF5pbNc9q247yiVmcInX0SxmpDAeq0VJqm8aiKZapEFCUppGs+lGif9H5WkVnu2JGoS+SJozDHVhi2mI+DhfT85VUEaVWHIiFjy1Vq7bErqW4/RsKV+VNetF/CxDIZmnIM8JKfq37L/KJbSJWOa2oIUMM7sIcGYA/TVtgRtGXZMm7f2TE7eajKdOUVB63lTT0yjqwbq/lMmhfy96MmQjCKgoW29ZyPvw+uOg0hxfEw5g9rfvnICoH2oL7P1FvH/Nw5/Ma2SrviSrBVL9StunXgX33TZBB6hCfGvUjwSgUqZuYY7EHVPv3VbzJ8ZayH33kUft26b8ht76SMNTZg7NwV29QOjrp/ka4RKHKsZG0ni/ZrxY6M7RNV5kQIU8ik3yQrDZkG/oY9UqsCxBSARC5fMAJxi93JAVV6BTQzqMISkXBkYD02FdXwqKhUPaLKHCKRw4b1y2kzo/G+IArfGVLrXFIQsayoZpqbJ8+JI0BgzeTm1BHdSJqDIPHu+y4fGUOdm68gueiq4z2OqsvmBjNQ6OC9ZqrGcU5zrr+N3NVyx4n1NsIUWoVs04zp1jqnTL9Roj05l2JrziSYMIY8zWnm/NaeyfdwCoqeH869zjtDces3w1hVCUy1bckgQKuhvmNijL5W2p6qj6XnRepXij8lebdiR8a8UPsZqYSJyRcW02jTw+9V39eh4PzxWZGmc3x+zUewGIx9TO3Hqpq2L2EHsd09Aoo2Z/xWBRmM2ZWdKGDgFRnwQtWoaZRcZaxj5fhcddTtRwDfMXnF/NVUVP6H4hry/rZ59acGBnv0EEUgS2X6sI1zUaKGp6xcrhxrY3Ucqv+p7rnqa/n/Wi9AiHoAsOXhqQhQnN+pq2dczzLFaFnV95DT9/5WuGgFPunN55h0msEwIWKecg6oNEOWsxnGahDsSr9vY6qj+nBeUIX4RF1KR821R4rqFRjVih2Z6+YKtwWaEuXqS8RuWqlhc778dhKt1GhV+uqafpu4OY31PfGEqSdArGpFW+XfuqYtvWcgRYBLy4aYyxE4FIWrmCaDebznqt33MQRc8JnW0dWceS3lj8kqnzxV68byY1/F6xmspbajQuPG58ZUzyJoh1xTYn75XI1Ntc1jFKjyc+f+W8Gx5f9r/U2HSWgMLOUzax1dqfq9VsA2xj2YENJUQT3m1k2BuTKXzc1z6nOOHWzMArjGVuabYayiEHOc3bFOihOpdsM42A8T8nPvdm0Zy9f7Mm4/OgZED+HDiERagTN83tUVeVPPXqIOrPiG0IljeWkLwq9RN5WWypKB/5CHP+dyUGHvPIZ8Hz1uVUa5wdah/+mY+nss1nJ2P7Et0T7L+8ggINP1HNWS+M1UE1VPPjkNoTTJs9ow3ZU4K5BIWdh0W7MhNRfPo3VxIo3hOc3bFafgN6/3Hv0OqghQantymLnevE+ZzlCcrchq1k3Bdq6N2nyWOLIC9dvi+xLMlPNWRVppTHLa3t/HLnx6yxlKh02ZdqNtEMSIFnGINsNYDXCPumsKKW2w6nKwxknRwBOVeqOnHJm1k2QrnF5PXjmNdYNpVZNXTr/k72gL0g7NZNkiVYhzdh+KeYpGHkLcmd740cQ3VXMwpjZjouZd5SDi5MkE4nvMQSaQyL3Hce73Qjmqt8zv2D6zP4YAPyLFiU8cSYHEiGaqvXS/iWnzufZqd0CK97WRDgVLienzOWYP+gdTTqZjNgvPed30b4MLMC8NkQLgmKA4lMeS9wAVChZsucGpol8ybrhzdiVgLdm+obzUngDONEY2AukQbYaxCvgh1NkUUrpFAq927pgTCSWWry3JSXJJB27Qy6wK5tqpYj2nnsOgaBMMS2Y0BERx5TN3hWL9VGP3rPyN/Us0KIMuDGkAKMOBUW29lX1jrZNHw+zRLzIi7005Csjwm4nuX1PyyWl9Bzk6VkR1Z3/ZHLDAybNH86BNt/Jf1iVmrjnC3XMq9KzakaHt/3LfnMtvNW9j/vvuglMBG0/VFoJFDKHFHbtLuN3ZRuIWME5QR5+KVIVj3hApPRanejOMFYZFB8Noen3+SKfhHd/QwyrsadeITm2dY5FmWi/VjcepGzbG3rq18svXQeYtnWcuo/qtjQfAV8tVIz6nymZqAI+YB+faCVvgopg+CkW6JxGpZYj0a67cckS65rCX5qeQxrv+2Ve938uTj/Yt+fBXgdcmZ/r/r7jVnmSXmhjtK9vABamheuc7s048M0ZDts5rNf1Hx7Ip71djlYQxAEov5qAs4EQXx4CAVkvgUiW0mObcjgq6vLulyJX7KdyNbIOBXFAJG0BlDBi6GcYa0VhjARLskIhcBGxRuezorD+mQjTPfNRfjwkp7rSS023td0Rhq2Yd2pFDO2wLjNXbftWLqJ7GSG0BTP1ahfnAABYxH1T1vKsqtrHI369s+GYaMYvnGWxzyTi75NPjr9tbjmozAk9E0hWCPspkRDOC7yPEUSf+QKWOUYx5nNOKTAfwMYeczPJuPXEewBVia3T4xr7zec2qR83JUJCUZgYnuqHpaikwHs1QCzPGyNZscgRvalps2Zmtx2YYa7Rx9YJy/IidvDQ8x/1StUu1UKJ2VOuo/ZHJCAZ0W8goK8TE1Ve3AsXYXmPVTrWB+zzHOGlWO/vEtJyLrgWhK0MY+zbcPQh1YtYEuIUgK9OK9PmkrGPUXdrZyGdJYUyV1SOfcXfYT9WPFfBPH2RWBlEQdbebqh+8NvRdqHkY0yCYVz62Qo0am5q+y6vvnMc5/jaqmjGuqzrqM33MWKryXfuaUaUQ0pYigUM5xOhS+ffkY7x5kMCag8YwCJthrHSAAIwe+w/p3RLOCcWAzjE6yLXK6oFBGno6HXCGk/pcl52ecm46jX3FBGnYRrY5a1FEzWY7XuuZfN14t0Q56SGh+GodeA9jrgnR3phViYZxa9m/tCFRDujOueSqmXymBjwZKpMY0uSZg1cQEIXrBFbIZOQxQovq4tVrbnFvzkrIEIU8hi7O9fG3dY7xsrnHlmm0BcFoiwQojvrz1/L3dHeZpcMDrt1fmEdo1xiwZ0o9HHPZ/3pKHsemxVTjO/M4FrBjU4xVODcB13vI+L1ubWWgdvKRXIWMLe1Nn4+G3KLDK2f2nH4rv12BMkH2CjTGnR1iwEPtd8OEKPgMpdcOp3pmzLfMvPyOsltAXKWbNh5VifOuh3Ywis9U55TrAF3SP89QmTnutSaQyl0KRDV1gcGDGOa8V7Bxm8RKLX6tmh9X6Vd9ZASuvGGCIS9BBm+RetTtCoy4um2JWlqGY9qgm0+MlndMfnOeRbPlSpXx0dJoxbw3xVgFS/RO3KIvVdFeS7vXe7Iag7cHLBM7znOZNx2O7ey2kOoPUaK0b8ymZWSruWqbqQNTRqJdtrXTSn4n2v+yMIU/LO1srRR0BSJNjDed8x/7LcKdfJaIr2x50S7uNY4HJHQRhjG2GXQydRraISjmC7Ka9BWQy/CKc5G7bmT/lx7zwljkaBSwuxKf4Q8maf1/Wx4EggV7g82cSzN7do+aWlfd+AiGf0qKMQUq4GOu26YYq2CJ3tWCkp8h4+JepS7le9ScudPib/elZILJK6CYbmvnqNtpk3+sWsdIW+dcnzPt1b0xh0X4Wkc1E2P1dKWVwVhx9VbloT8b5c1VcZKvCHfyqVZ7Vdk919yJI9ttBShViG1X6Qgb2vbQUvRQa1P0JZC7CnZ5izLV6Jp3eup5bmnQCPDus0+x9TTMZI/Lmc+cw1GNYK9g1lPnY+fnnjJ60ojF4b2BRxijTTFWfRV7V4b4XdIRoiQBOxykxfuvNgzWF28uUxQYQjk9gJuxF3Iu93XRoF38VSjaXFf8J0k7N2C2e1WCbu0hmYJ1zAjSVh4yyOwbF+2N1bOibimvB7Vc5cG1aI8GcbgUCb5CJR9J9DSuYZm0K6N+j+c5XfX7gAJNsWNj+xRgq+eHrlXaJdITfID+ZyWzVdIUQXi8inTrYtW+JVJgZI6tti6c05aHPuqey/fda/6bU0bPM7r28e31oJ43xVhVNfYieNkLko6IPlDXtp+rj1o1YiuayFinC7ghFNxtori6pw9BgI6Rkx6ApzlkGLze4AtRqKGOPZIk9TJcXF7BRYRsVX+fo6y5Kk7yjSu6an/bquyea6qYs43UcVD1q8yY71fty1hUIOuiIJSd5RXKekFQ5hePuMcpBEektxs+ZFBTfPbczw1mT8CFTHE3lbkgwJznTf2OkcviOzumfG2bfNunJCOBMfZ/+Q3jrnabYqw65/aGSTP6yzPfeL2no3ZaQw8aQILgAHMJH1iAN7eJ4iDhY9JOPdTGGGChx10j5+VOQb2CUwQBUcfela5I7tymIZUpdXWDAMrKiOLclrHflE280RYydOz56j51om78iY7GpoedkmswpUy6pOG7axzbHiGKfHSvyJt2TwVB5Tr5WzBcZEDPfeuHL9uCunSrNITrUJ2aVeBbaSv15lsbiiaGyxHbF/qNttp2lz36joaxlXbt625LSdt68DibYqyuaHrRt263FjetPlx7932XL5aO4i/Hhl37RW0hf4UO+kc79VC9I3puzkpMgEDvdmDZDhw3Vxiqp64cIMIjGYWoxaBlyPTHXBWn5dFX/C1JURjyezbGNlHBqjpHYWgqeCxu1BDb4Q4gEX0f7/eef+NTXnk5NqOrxZgdvDfvU6ZzP9k4L1kfAWjR1957Wzj2jGEXPKDVhyjuoLRUdLKh8obuOWcw9qv9jvOzm2Ks2saqraRyw/itL120VbgqAhiwhC2oKve2XGMVw4fEXy8gyY2ymSCmkuWNOV+bbwwWQB2rTbFNG4+qPzNs/hA39557Y/LDeQxFuDRTPBRy5AkMlL7Q19vIYPj6VhSj/Iiiz+461XNc090px11mhUkdeuzyrby5bji7GIjelQMbt2+VBCdVcXdR19N3PdsmnmP78Yem/i07JFoVt9gkwMsQxYAlS2p2hsps3VNAZbHRYz/eFGMVPNIzyTPxCfl3kqHTGJC8eIAq2AE45+9cJ8rWi76J6wK76J9eLYGTYY5XO1bfaFvqlU5Zgfn+OFYTVVWu7x0bXhywLZSreRi5qwch7TM3fRT44pZqRkdqbU0XV7mi6HuZlmEHs0q9hU6e2hfatWIkH3cG2irjoQ/cA5fVdyaDzrcYU05/br/162flWs2pfjOM16HdsmiX2hSY2akJZooA2fteNsVYHWg9m0zH1Wj0vxTdxe4ZhrfDV3OnB/aA9mgGQe8uJe41ynZkU8hVJEyrGpBVXqRT+qWOvb5uoMPddxV7j2QQ8covkzQGLVjSncCylzqqiqOuojTpm6HNp90tRsG1l2mpOiYCUyTVZscCjHCHou5xBS3zZ8OBrdI//5k3XLYLO2MmAZoV081pz/E3oEcXNBWSV1c33uuYP6jA0Fbs7nNsv3XaFGPVplNtJWWDPAqgQDUWSRccVr2oHHnBVXDy+MyD9dz9FemjXrcQtrkifS8Ahr5FoyBSMk/SY31PtCXK468ayK3nLS/6RBuXtIX6E3VL/ORzpeiSJmMaY3Ai5V2x9zKtFtjpADD6kbsZ7tQ+M+AAwoI0Rbj2mXM7qtWp9hz2uzwmAMmp2+tevLyrSGiiFGgZr9ktLKblXPVrNtnkdOf4e1OM1ViUrCzGiOhMvDw+1EgR+ekq6ba5ysT2HnOuvZR+VLU4lp/Re5Aye1aeCEBOJrjpTN3QXTs6dZzyrNFtovajJy4pjLja2HusX27qvsAQVjxOcNlfN9fFPnQ1Efskp42/da8icEskI2IhqBxDCsdolPyW2N6Od51dfI4p56afZZME2pCxItHFqGfbvpuud295YhGyOtjrmiswxQx5D2w5GMimGOuUAau/Ww48HgOVG6S/NxRe74d1W9IJspjCtOLkMKR+pI+OZarkoesCdaTsXiKcIc8wyN0l5RA3+t77erM5u3SGGQQEY4xnBMghUn2sPRbm1UOtiY8tvujbY4OxM+nqy2r4vzGAWU+9T51GrVkO2KEGDd9NBYlT13VO+ZjhVAfHwDuqwJ/w/Hdd7l3NNzLkn6rg1utXPaeuaz2zKcZ6UDF1+LBpJI/2GToRn1Ze6D9TXP52AAAN9klEQVR66msvA6lzniXutTp7a/nSR/QPf0OSZW6X+5YScKBFUf3LxD7GhFv5GKSbyWgK0R4CudM2tzaTwWzZJ1nkPPYr2sZqdGySVqBAwOSZrMJr9auqury9mYE2ptrZq3L0wTU+uJoGMBJbJRgL/Zx3w9I2TXjJrZMgUb8l9tAWsY6g51iDebZIsGBvqNJWPqe4vinGit8XH2T2P6w6TntsjsbjJtO8LF/cFHtgVdZtvebgmGqDFgQUI17lPgJJyrs8hqmS59//sVdf5pNV/rm86jcTf5zgVImys89WyWhItIu/iKhttUkVuIJGL6JbcIn7HZu/5paesn2mdbRuAKUg4kjTLjRPWyUBftmWrTbt2JX+OfSLal/MOwh2bvaACxa/FdqHYmULjsNFcmu0Kcb6+vd94nJQ9YTM0xaTnf1FdjKhu+8hg3enB/aAATnoqynkxJGFGvNgYAmYiT7G3p9y1I6YVf49eWguAESBOtg6zQlu0VPeTaTRb1XGWgUhyPUQtOUzva5V2LR5BmR2XBUTm5vreezlcnt+K/y4Qp0afa2njJtOI9Phu4uaoEf96tsu+63HnfCm6zy1vKwOdi7RzNDjVqTWMbtzTa3LKdJvirG6+8YYmoyOdEBG53KuA8Jh0KO+Ui2c1cWneBHnWCZ7hdJXU8PHybBaKnZBKbh5xIllTh8YBxfQzlTCJmusaOyFup0QAH6rZNAG3hs21iraUm6bGgae4Q8f7x6KwSWifVsG0evzN1SWYRMB/ECCs8ai9gzleep79JUAnuhWo38rIVJvA6nxIqKZwV+I7w3pNjVkLhCsmgOQbKFvNsVY3eS4Z0NrpfCsasC2x+QB0hA/Ms6JFrLTA3vAXVGmqqbwDaVfWclUE7vbvc1ZZeZaom6krDFn8/ycv2XMtpW8jo0DbN6nODJR0wb+encZ0s3G53r300Uo8pkYMH5JOyiuT5Sh4GSYw95gIKd4Bz1lsgKnXQifrva/5o6NuycWbU8Zp07jylyBFe8LgYLeG9IWGoWK73NrtCnG6oTdE4lDVxHsqJGilO3HPXdSjvnexnNCjjH4c5D1sbYyUfz5O8G40TJkAg1Jvq5C8v0pv83r0c96+5THDmndqN76Uq9KGDg8cOYnYghoR95vtlV1kbY8w5/2zFb6eN140nETi3/59KsN0Fk9H0tGcdL8Y5xdgD5bJuYhd24BoU5AevsyBi3ZchujOpjvKrpxiSgfwka4mxTbE26NNsVYI1McUyHqGyma0BeDxCSE31UKKs+dHtgD+KSy6un1YY05GEGmmtxV5/XG9o355nN2Z8GWO9cuChN1gmPw8224gshlbeE3iGYZpC4qY/V28wGf693vmHxV8fEeJOISk1f17k3Te1TDhPsGY9egJb0bNfSWc4p0RroCnHMwj9xp5ynqs0aZxg7me4jvLNrnW7vc+F1ql12jfmvluSnGGuOauntHq2P04av8pEQ/alvCJrTTsj0geCz3bVzNngv6VqQpgz8jXJftlfVzQyULfoBVYy+J4pWx9kbZIn9thfFditRG3XcsMekathKXLMNsZoH52HJO8Ty2fNumzRHB4TaRyF40QpGBIiSpIkZ4qogVLt/kErb6Kv81r22KsdIRvoyhjabxmXKSIHZlJlez33DH1w/JaKdle4DYwryDDHxiMuE6aq9zUbkahpF6wSi2Tggv2rJ62hL3maUP9OvtefYf/vhrLt9n3ET9bz/5FZfXCHm4BDleAb7IyPGhvQ2kjd+FAKjn20QwUxgj6u5M2pRbfuNL2upz2Wv/3hxj7XGJMLg+TLhS6xHrlQnkqx975RCPLn+nZXvADZtZAcZJ3v0mz8kJHkHMie3BGIVLEB9jgr8pLlBGWfr6J7/i8AERKYd8Yhzmw80ZJ/qysgKuVM8zsjybRwyyYd8v4aJ0No0bqYhCGd4ZFWmr/+kFbPVV/mte2xxjNRJLVD3lDuIeH2rLLceBaiSQ7JKT89t/T+8B1PZqF7AfSQZRz87x3j/V0VCA5xxgf62+wXXFiZ0jG5X3krYynjNWsxGcdK3ozauVzh2pUJcaxH1IY9XK51yvizmgDxFUHiykO18rlrW2+i26H22OsRoKawiSbhzY1qpIJ3Mnky1KRFsYfIbKI+qKpBvUuU0gomlvmyrOfh86GhXH8VDhEoaeV/XrO11aXasNGGHMOm7ZJSr3JSt72zXFvp3z2dpvg5mg8q1IAOQStvoq/zWvbY6x9sDt9eXT9y13oMEj/Jhbm0Dn5/bf03rAiVDwAWr5hz7qnstJ5BzBJwhkt8XVYcqbevl7PnaY2BkT0XWmJx/9DVHtQYIDCXm4BBnIBXWzYzbusbxEGafMg3FBiD8EkugPfMo63UTZakoAu1Xk+56CUq/yOcW1zTFW1bhDvnaCMVr+qbrZOEh7N/E+xQvacplGAUKlAzFh0+etwBFbbuuW6/7GD3zywLB4P2OI+9xWttHzvfKs/phTGXTO19+6EMmwKSva7U235eOXvjwNcLbltlp3QHK8S7AuFWmrH9rMo3ruHK5tjrG6Z2SOqBQ7042EWzE3DZPGS+UPVOhOy/eAA0cncDfGboU6XL4Ge449PWCYT8fDHLS2k6Cbq5MXfudLkEhy64dP607b7wHs5LxT7OYIFplEDW9x0/fNMdZvHonqwqRwHf/1Ki5lfmEEGXeQcuwJVJ7z2H+P98D9n/+TQz+zkjGSyhZDlI23drsp3KXGMVEh6cda57v9ez/6qsM7HwviMpan93HZcBVMHXtCmvrsfjzfHoCZ+l4rEwwhEHnfY/sJn2MLN8dYjQ0bw2PFjnVV5I4l8Z7nxh91IiFs2k7r9IAO/fSxW8XtYLF1+npurhHZO3c1mN1GUPfPYdCtNvgdMWZvg69xq50Ptuu+12pVigDF+yZG/NZoc4xVoAWdXqmsVAM/5lnvaL6LjII8RyBNs/Ibu2FIM7QESqDVINpYs25VdaNmYe5qECaqXziTIf6mSxJh/xSEWza5Jcvb87qZHlDD8aw3PzBKl+56W3St2hxjBbRgJJYMOupRA/O5ELPSQcrx3o/cjiguNzMUppWCjxp9rK8esXg/+4UvTstkT71qD6BqdTwcsxqMm6wfk0/VWBHm1POvPuF2hf2r2vtguRZ9lGOb4ze5RdeqzTFWOl//pxwuTzXwX3zM1cbV8UXFc3T2TiQcl3ILiGXs51c94Dtx44Ovu2WxUG/Le3Z1gGpuLhEQwnG19Kryyb9xJaCR/8Oe9PK5VdyfO7Me0Db/yGfcvREKO+P4LVWayTNrxgOqs0nGCozf4NXvve9a/96jBqYH3EnCF1cZzh/QU/uFWT2QEZ3ERt3p/Hrgq+5s83dMEHi0SaxUGVeghJckfR7Je2gPzyXL3PNavwfY+5d3mmMOfPzTXzgw1iVt9eu36KqETTJWqm70JGNr9qqBeRaEqkyV4xZVDTf1gRxbDoPC+M70NbbWnc6vBwwVeuzm84IL/9YPXccOXqK1um7xDRFMYafb0QN5v11b5XaBxPDeIm2WsbLRMYOM7Yi+8MUvXahyHFMD85Ki/p48CMK+03o9EIEnr3/fJ9YraM95dg8YKvQbn/LK2XnwIAH8USu3UPtzM9fnkfH6z376du0AM7dPbsNzMtA/84i7N0xhL2je9V/4nns22czNMlZ8oGCidD5RmHrVwL4lfV15/rZFcbGN53IEoU0/81dt43cu9Xww18NQoYYlPKYv0ABVDv/H5El+BuD/Vz+3mxOO6ctzepbNOsRffOzTnz9UDQGN+cLgMocbGznZLGOlfzV8s6+qjPLNH/yDrq6XKc/12+sqZE902QPGev0rj3/x3iNn2gOGCjX85DlW011zzm1npHPsqy3VSTNEdHs0jOVWwY6bZqwAY5R2kG561MB+cITV4xnsfzut2wOo2tEovOAdH123oD332T3grkNENjtXcreTR/3q2861inu9ZvQA3h3MxTH+O9HwuHaszX9GdRZ5ZNOMlR5wQuAlDAWFyL2FLYlnCFqw094DD/Ye+KanveFyPLDz07mS+3c+7jnvPNcq7vWa0QOa8dglSXre2z5y+T1ml0rvn/tx84yVVRAMkr9eNTAvxfB6qJd22nvgwd4DOup/xzPferZdwS487P36mx/6w7Ot416x6T3wxHvuvZy/v+tXrr89t/7cKgJ884wV4zc+UNiGpoCQlJL2nVamD4T9idvXA6B4p2p9bl8v7C06RQ/84us+ePntoX2Ufu41H7i8RkjULdLmGevcTsdOw0SyR3GZ24P7c7epB57+6vdfjgcmtJ32HrjJHnjVb12FmP3ax7/4gCZ3B7KtBpR50DJW1Q97FJebHEJ7WefaAwTy+J1PfHbRHWnOta17vc6rB/RlZaFDxK6Xvvu+C0NY5lCH51Xzdm0etIz1qS+72pN1qzr89ivd7+w9sPfA3gPb6gG2knSbOBgsuyNxfPSz3r6thtyp7YOWsb7wDujpkc+4Nphv8g3uld57YO+BvQduQQ8QapYdkogtAFPl7/uf965NtuxBy1gBOuGEzC4KO+09sPfA3gN7D5xHDxCf4Ft/4S2X4Wqxv26RHrSMdYsva6/z3gN7D+w9sPfA+ffAzljP/x3tNdx7YO+BvQf2HthQD+yMdUMva6/q3gN7D+w9sPfA+ffAzljP/x3tNdx7YO+BvQf2HthQD+yMdUMva6/q3gN7D+w9sPfA+ffAzljP/x3tNdx7YO+BvQf2HthQD3zF/ffff7H/7X2wfwP7N7B/A/s3sH8Dy3wD/x+3cvCxsYB4MQAAAABJRU5ErkJggg==;" vertex="1" parent="1">
          <mxGeometry x="130" y="280" width="113.25" height="40" as="geometry" />
        </mxCell>
        <mxCell id="q4SNdj-srVkhhxJCpdBC-14" style="edgeStyle=orthogonalEdgeStyle;rounded=0;orthogonalLoop=1;jettySize=auto;html=1;exitX=1;exitY=0.5;exitDx=0;exitDy=0;" edge="1" parent="1" source="q4SNdj-srVkhhxJCpdBC-11">
          <mxGeometry relative="1" as="geometry">
            <mxPoint x="270" y="370" as="targetPoint" />
          </mxGeometry>
        </mxCell>
        <mxCell id="q4SNdj-srVkhhxJCpdBC-11" value="" style="shape=image;verticalLabelPosition=bottom;labelBackgroundColor=default;verticalAlign=top;aspect=fixed;imageAspect=0;image=data:image/png,iVBORw0KGgoAAAANSUhEUgAAAdQAAAClCAYAAADlLgy8AAAXYklEQVR4Ae2YUYol2HUEvSPtx16IdqKNaAtajv6EQcYwY45hYD7nRdTtzJrOgkY/FZXxMt/lSPqPX/ezBtbAGlgDa2AN6Ab+Q/+F/YE1sAbWwBpYA2vg1x3UfQnWwBpYA2tgDXxBAzuoX1Di/sQaWANrYA2sgR96UH/55Zdf//t//hf/O/7TH5tpfL8TS7r9dIuv+v3vtint1nzOnyXTvDHaEf0emz3N5zTsj+6IdtvC/bCDesP859/+8etf/vp3/O+//vaPXz8Z+Csyje93Yj/tNvUF/o6bkm7t5/xZMs0bIx3R773d03xOw/7Ijmi3TdwPO6j335LMsL+x93f+6M9XZf6W/Wf/z0+6/aMbfPXvfddNP+32Kz7nz5Jp3uWnHdHv81fsaT6nYX9UR7TbJi5yUP/5r39/9H/73u//9oX4ZNzff4k/zTz2Z/hHu019ib/TpqZb+jl/lkzzNk1H9HtP9zSf07CJjmi3TVzkoN7Qn/z8/sv4CUu5T9y+++9+t46+k69xpSzl7ntMWcqZTPPujC/NTWRS19QuxreF3UFtWSLksYf+rnjTLWUpdy1QlnIm06xmfGluIpO6pnYxvi3sDmrLEiGPPfR3xZtuKUu5a4GylDOZZjXjS3MTmdQ1tYvxbWF3UFuWCHnsob8r3nRLWcpdC5SlnMk0qxlfmpvIpK6pXYxvC7uD2rJEyGMP/V3xplvKUu5aoCzlTKZZzfjS3EQmdU3tYnxb2B3UliVCHnvo74o33VKWctcCZSlnMs1qxpfmJjKpa2oX49vC7qC2LBHy2EN/V7zplrKUuxYoSzmTaVYzvjQ3kUldU7sY3xZ2B7VliZDHHvq74k23lKXctUBZyplMs5rxpbmJTOqa2sX4trA7qC1LhDz20N8Vb7qlLOWuBcpSzmSa1YwvzU1kUtfULsa3hd1BbVki5LGH/q540y1lKXctUJZyJtOsZnxpbiKTuqZ2Mb4t7A5qyxIhjz30d8WbbilLuWuBspQzmWY140tzE5nUNbWL8W1hd1Bblgh57KG/K950S1nKXQuUpZzJNKsZX5qbyKSuqV2Mbwu7g9qyRMhjD/1d8aZbylLuWqAs5UymWc340txEJnVN7WJ8W9gd1JYlQh576O+KN91SlnLXAmUpZzLNasaX5iYyqWtqF+Pbwu6gtiwR8thDf1e86ZaylLsWKEs5k2lWM740N5FJXVO7GN8Wdge1ZYmQxx76u+JNt5Sl3LVAWcqZTLOa8aW5iUzqmtrF+LawO6gtS4Q89tDfFW+6pSzlrgXKUs5kmtWML81NZFLX1C7Gt4XdQW1ZIuSxh/6ueNMtZSl3LVCWcibTrGZ8aW4ik7qmdjG+LewOassSIY899HfFm24pS7lrgbKUM5lmNeNLcxOZ1DW1i/FtYXdQW5YIeeyhvyvedEtZyl0LlKWcyTSrGV+am8ikrqldjG8Lu4PaskTIYw/9XfGmW8pS7lqgLOVMplnN+NLcRCZ1Te1ifFvYHdSWJUIee+jvijfdUpZy1wJlKWcyzWrGl+YmMqlrahfj28LuoLYsEfLYQ39XvOmWspS7FihLOZNpVjO+NDeRSV1TuxjfFnYHtWWJkMce+rviTbeUpdy1QFnKmUyzmvGluYlM6praxfi2sDuoLUuEPPbQ3xVvuqUs5a4FylLOZJrVjC/NTWRS19QuxreF3UFtWSLksYf+rnjTLWUpdy1QlnIm06xmfGluIpO6pnYxvi3sDmrLEiGPPfR3xZtuKUu5a4GylDOZZjXjS3MTmdQ1tYvxbWF3UFuWCHnsob8r3nRLWcpdC5SlnMk0qxlfmpvIpK6pXYxvC7uD2rJEyGMP/V3xplvKUu5aoCzlTKZZzfjS3EQmdU3tYnxb2B3UliVCHnvo74o33VKWctcCZSlnMs1qxpfmJjKpa2oX49vC7qC2LBHy2EN/V7zplrKUuxYoSzmTaVYzvjQ3kUldU7sY3xZ2B7VliZDHHvq74k23lKXctUBZyplMs5rxpbmJTOqa2sX4trA7qC1LhDz20N8Vb7qlLOWuBcpSzmSa1YwvzU1kUtfULsa3hd1BbVki5LGH/q540y1lKXctUJZyJtOsZnxpbiKTuqZ2Mb4t7A5qyxIhjz30d8WbbilLuWuBspQzmWY140tzE5nUNbWL8W1hd1Bblgh57KG/K950S1nKXQuUpZzJNKsZX5qbyKSuqV2Mbwu7g9qyRMhjD/1d8aZbylLuWqAs5UymWc340txEJnVN7WJ8W9gd1JYlQh576O+KN91SlnLXAmUpZzLNasaX5iYyqWtqF+Pbwu6gtiwR8thDf1e86ZaylLsWKEs5k2lWM740N5FJXVO7GN8Wdge1ZYmQxx76u+JNt5Sl3LVAWcqZTLOa8aW5iUzqmtrF+LawO6gtS4Q89tDfFW+6pSzlrgXKUs5kmtWML81NZFLX1C7Gt4XdQW1ZIuSxh/6ueNMtZSl3LVCWcibTrGZ8aW4ik7qmdjG+LewOassSIY899HfFm24pS7lrgbKUM5lmNeNLcxOZ1DW1i/FtYXdQW5YIeeyhvyvedEtZyl0LlKWcyTSrGV+am8ikrqldjG8Lu4PaskTIYw/9XfGmW8pS7lqgLOVMplnN+NLcRCZ1Te1ifFvYHdSWJUIee+jvijfdUpZy1wJlKWcyzWrGl+YmMqlrahfj28LuoLYsEfLYQ39XvOmWspS7FihLOZNpVjO+NDeRSV1TuxjfFnYHtWWJkMce+rviTbeUpdy1QFnKmUyzmvGluYlM6praxfi2sDuoLUuEPPbQ3xVvuqUs5a4FylLOZJrVjC/NTWRS19QuxreF3UFtWSLksYf+rnjTLWUpdy1QlnIm06xmfGluIpO6pnYxvi3sDmrLEiGPPfR3xZtuKUu5a4GylDOZZjXjS3MTmdQ1tYvxbWF3UFuWCHnsob8r3nRLWcpdC5SlnMk0qxlfmpvIpK6pXYxvC7uD2rJEyGMP/V3xplvKUu5aoCzlTKZZzfjS3EQmdU3tYnxb2B3UliVCHnvo74o33VKWctcCZSlnMs1qxpfmJjKpa2oX49vC7qC2LBHy2EN/V7zplrKUuxYoSzmTaVYzvjQ3kUldU7sY3xZ2B7VliZDHHvq74k23lKXctUBZyplMs5rxpbmJTOqa2sX4trA7qC1LhDz20N8Vb7qlLOWuBcpSzmSa1YwvzU1kUtfULsa3hd1BbVki5LGH/q540y1lKXctUJZyJtOsZnxpbiKTuqZ2Mb4t7A5qyxIhjz30d8WbbilLuWuBspQzmWY140tzE5nUNbWL8W1hd1Bblgh57KG/K950S1nKXQuUpZzJNKsZX5qbyKSuqV2Mbwu7g9qyRMhjD/1d8aZbylLuWqAs5UymWc340txEJnVN7WJ8W9gd1JYlQh576O+KN91SlnLXAmUpZzLNasaX5iYyqWtqF+Pbwu6gtiwR8thDf1e86ZaylLsWKEs5k2lWM740N5FJXVO7GN8Wdge1ZYmQxx76u+JNt5Sl3LVAWcqZTLOa8aW5iUzqmtrF+LawO6gtS4Q89tDfFW+6pSzlrgXKUs5kmtWML81NZFLX1C7Gt4XdQW1ZIuSxh/6ueNMtZSl3LVCWcibTrGZ8aW4ik7qmdjG+LewOassSIY899HfFm24pS7lrgbKUM5lmNeNLcxOZ1DW1i/FtYXdQW5YIeeyhvyvedEtZyl0LlKWcyTSrGV+am8ikrqldjG8Lu4PaskTIYw/9XfGmW8pS7lqgLOVMplnN+NLcRCZ1Te1ifFvYHdSWJUIee+jvijfdUpZy1wJlKWcyzWrGl+YmMqlrahfj28LuoLYsEfLYQ39XvOmWspS7FihLOZNpVjO+NDeRSV1TuxjfFnYHtWWJkMce+rviTbeUpdy1QFnKmUyzmvGluYlM6praxfi2sDuoLUuEPPbQ3xVvuqUs5a4FylLOZJrVjC/NTWRS19QuxreF3UFtWSLksYf+rnjTLWUpdy1QlnIm06xmfGluIpO6pnYxvi3sDmrLEiGPPfR3xZtuKUu5a4GylDOZZjXjS3MTmdQ1tYvxbWF3UFuWCHnsob8r3nRLWcpdC5SlnMk0qxlfmpvIpK6pXYxvC7uD2rJEyGMP/V3xplvKUu5aoCzlTKZZzfjS3EQmdU3tYnxb2B3UliVCHnvo74o33VKWctcCZSlnMs1qxpfmJjKpa2oX49vC7qC2LBHy2EN/V7zplrKUuxYoSzmTaVYzvjQ3kUldU7sY3xZ2B7VliZDHHvq74k23lKXctUBZyplMs5rxpbmJTOqa2sX4trA7qC1LhDz20N8Vb7qlLOWuBcpSzmSa1YwvzU1kUtfULsa3hd1BbVki5LGH/q540y1lKXctUJZyJtOsZnxpbiKTuqZ2Mb4t7A5qyxIhjz30d8WbbilLuWuBspQzmWY140tzE5nUNbWL8W1hd1Bblgh57KG/K950S1nKXQuUpZzJNKsZX5qbyKSuqV2Mbwu7g9qyRMhjD/1d8aZbylLuWqAs5UymWc340txEJnVN7WJ8W9gd1JYlQh576O+KN91SlnLXAmUpZzLNasaX5iYyqWtqF+Pbwu6gtiwR8thDf1e86ZaylLsWKEs5k2lWM740N5FJXVO7GN8Wdge1ZYmQxx76u+JNt5Sl3LVAWcqZTLOa8aW5iUzqmtrF+LawO6gtS4Q89tDfFW+6pSzlrgXKUs5kmtWML81NZFLX1C7Gt4XdQW1ZIuSxh/6ueNMtZSl3LVCWcibTrGZ8aW4ik7qmdjG+LewOassSIY899HfFm24pS7lrgbKUM5lmNeNLcxOZ1DW1i/FtYXdQW5YIeeyhvyvedEtZyl0LlKWcyTSrGV+am8ikrqldjG8Lu4PaskTIYw/9XfGmW8pS7lqgLOVMplnN+NLcRCZ1Te1ifFvYHdSWJUIee+jvijfdUpZy1wJlKWcyzWrGl+YmMqlrahfj28LuoLYsEfLYQ39XvOmWspS7FihLOZNpVjO+NDeRSV1TuxjfFnYHtWWJkMce+rviTbeUpdy1QFnKmUyzmvGluYlM6praxfi2sDuoLUuEPPbQ3xVvuqUs5a4FylLOZJrVjC/NTWRS19QuxreF3UFtWSLksYf+rnjTLWUpdy1QlnIm06xmfGluIpO6pnYxvi3sDmrLEiGPPfR3xZtuKUu5a4GylDOZZjXjS3MTmdQ1tYvxbWF3UFuWCHnsob8r3nRLWcpdC5SlnMk0qxlfmpvIpK6pXYxvC7uD2rJEyGMP/V3xplvKUu5aoCzlTKZZzfjS3EQmdU3tYnxb2B3UliVCHnvo74o33VKWctcCZSlnMs1qxpfmJjKpa2oX49vC7qC2LBHy2EN/V7zplrKUuxYoSzmTaVYzvjQ3kUldU7sY3xZ2B7VliZDHHvq74k23lKXctUBZyplMs5rxpbmJTOqa2sX4trA7qC1LhDz20N8Vb7qlLOWuBcpSzmSa1YwvzU1kUtfULsa3hd1BbVki5LGH/q540y1lKXctUJZyJtOsZnxpbiKTuqZ2Mb4t7A5qyxIhjz30d8WbbilLuWuBspQzmWY140tzE5nUNbWL8W1hd1Bblgh57KG/K950S1nKXQuUpZzJNKsZX5qbyKSuqV2Mbwu7g9qyRMhjD/1d8aZbylLuWqAs5UymWc340txEJnVN7WJ8W9gd1JYlQh576O+KN91SlnLXAmUpZzLNasaX5iYyqWtqF+Pbwu6gtiwR8thDf1e86ZaylLsWKEs5k2lWM740N5FJXVO7GN8Wdge1ZYmQxx76u+JNt5Sl3LVAWcqZTLOa8aW5iUzqmtrF+LawO6gtS4Q89tDfFW+6pSzlrgXKUs5kmtWML81NZFLX1C7Gt4XdQW1ZIuSxh/6ueNMtZSl3LVCWcibTrGZ8aW4ik7qmdjG+LewOassSIY899HfFm24pS7lrgbKUM5lmNeNLcxOZ1DW1i/FtYXdQW5YIeeyhvyvedEtZyl0LlKWcyTSrGV+am8ikrqldjG8Lu4PaskTIYw/9XfGmW8pS7lqgLOVMplnN+NLcRCZ1Te1ifFvYHdSWJUIee+jvijfdUpZy1wJlKWcyzWrGl+YmMqlrahfj28LuoLYsEfLYQ39XvOmWspS7FihLOZNpVjO+NDeRSV1TuxjfFnYHtWWJkMce+rviTbeUpdy1QFnKmUyzmvGluYlM6praxfi2sDuoLUuEPPbQ3xVvuqUs5a4FylLOZJrVjC/NTWRS19QuxreF3UFtWSLksYf+rnjTLWUpdy1QlnIm06xmfGluIpO6pnYxvi3sDmrLEiGPPfR3xZtuKUu5a4GylDOZZjXjS3MTmdQ1tYvxbWF3UFuWCHnsob8r3nRLWcpdC5SlnMk0qxlfmpvIpK6pXYxvC7uD2rJEyGMP/V3xplvKUu5aoCzlTKZZzfjS3EQmdU3tYnxb2B3UliVCHnvo74o33VKWctcCZSlnMs1qxpfmJjKpa2oX49vC7qC2LBHy2EN/V7zplrKUuxYoSzmTaVYzvjQ3kUldU7sY3xZ2B7VliZDHHvq74k23lKXctUBZyplMs5rxpbmJTOqa2sX4trA7qC1LhDz20N8Vb7qlLOWuBcpSzmSa1YwvzU1kUtfULsa3hd1BbVki5LGH/q540y1lKXctUJZyJtOsZnxpbiKTuqZ2Mb4t7A5qyxIhjz30d8WbbilLuWuBspQzmWY140tzE5nUNbWL8W1hd1Bblgh57KG/K950S1nKXQuUpZzJNKsZX5qbyKSuqV2Mbwu7g9qyRMhjD/1d8aZbylLuWqAs5UymWc340txEJnVN7WJ8W9gd1JYlQh576O+KN91SlnLXAmUpZzLNasaX5iYyqWtqF+Pbwu6gtiwR8thDf1e86ZaylLsWKEs5k2lWM740N5FJXVO7GN8Wdge1ZYmQxx76u+JNt5Sl3LVAWcqZTLOa8aW5iUzqmtrF+LawO6gtS4Q89tDfFW+6pSzlrgXKUs5kmtWML81NZFLX1C7Gt4XdQW1ZIuSxh/6ueNMtZSl3LVCWcibTrGZ8aW4ik7qmdjG+LewOassSIY899HfFm24pS7lrgbKUM5lmNeNLcxOZ1DW1i/FtYXdQW5YIeeyhvyvedEtZyl0LlKWcyTSrGV+am8ikrqldjG8Lu4PaskTIYw/9XfGmW8pS7lqgLOVMplnN+NLcRCZ1Te1ifFvYHdSWJUIee+jvijfdUpZy1wJlKWcyzWrGl+YmMqlrahfj28LuoLYsEfLYQ39XvOmWspS7FihLOZNpVjO+NDeRSV1TuxjfFnYHtWWJkMce+rviTbeUpdy1QFnKmUyzmvGluYlM6praxfi2sDuoLUuEPPbQ3xVvuqUs5a4FylLOZJrVjC/NTWRS19QuxreF3UFtWSLksYf+rnjTLWUpdy1QlnIm06xmfGluIpO6pnYxvi3sDmrLEiGPPfR3xZtuKUu5a4GylDOZZjXjS3MTmdQ1tYvxbWF3UFuWCHnsob8r3nRLWcpdC5SlnMk0qxlfmpvIpK6pXYxvC7uD2rJEyGMP/V3xplvKUu5aoCzlTKZZzfjS3EQmdU3tYnxb2I8P6i+//PL/D+++IJ/8++e//v3rX/769///d9wnP7//Mt7f+aO5JvMTv+/8u7TbP7rBV//ed9rUdEs/58+Sad6c6Yh+n+me5nMaNtER7TbN3U387efjg/r7on87kJ/+5/2NT34SmZ/4feff/YpuP93/q37/0+/Rj97pq7r95HP+LJlmy6/qiH6PP9nTfE7Dpjui3Sa43+/5ww/qf/3tH7/+/qL/kdHv94+jZZHMP+L1Z/gd2y3dxHLfYdOv6PbTz/mzZJq39xUd0e/vp3uaz2nYZEe02xSnDuoVfX+A/jue/Jhcmkk8vyNjuqXfA8t9l01tt+Rz/iyZ5q3Zjuj3l+xpPqdhUx3RblPc7zf9+H+hmoHGroE1sAbWwBr4szawg/pnXXafaw2sgTWwBn5oAzuoP7Tuha2BNbAG1sCftYEd1D/rsvtca2ANrIE18EMb+D/QMFaP1wcCigAAAABJRU5ErkJggg==;" vertex="1" parent="1">
          <mxGeometry x="130" y="400" width="113.45" height="40" as="geometry" />
        </mxCell>
      </root>
    </mxGraphModel>
  </diagram>
</mxfile>
